<?xml version="1.0" encoding="utf-8" standalone="no"?>
<!DOCTYPE svg PUBLIC "-//W3C//DTD SVG 1.1//EN"
  "http://www.w3.org/Graphics/SVG/1.1/DTD/svg11.dtd">
<!-- Created with matplotlib (https://matplotlib.org/) -->
<svg height="360pt" version="1.1" viewBox="0 0 864 360" width="864pt" xmlns="http://www.w3.org/2000/svg" xmlns:xlink="http://www.w3.org/1999/xlink">
 <defs>
  <style type="text/css">
*{stroke-linecap:butt;stroke-linejoin:round;}
  </style>
 </defs>
 <g id="figure_1">
  <g id="patch_1">
   <path d="M 0 360 
L 864 360 
L 864 0 
L 0 0 
z
" style="fill:#ffffff;"/>
  </g>
  <g id="axes_1">
   <g id="patch_2">
    <path d="M 108 315 
L 777.6 315 
L 777.6 43.2 
L 108 43.2 
z
" style="fill:#ffffff;"/>
   </g>
   <g id="matplotlib.axis_1">
    <g id="xtick_1">
     <g id="line2d_1">
      <defs>
       <path d="M 0 0 
L 0 3.5 
" id="m8c98c685c4" style="stroke:#000000;stroke-width:0.8;"/>
      </defs>
      <g>
       <use style="stroke:#000000;stroke-width:0.8;" x="193.775207" xlink:href="#m8c98c685c4" y="315"/>
      </g>
     </g>
     <g id="text_1">
      <!-- 1910 -->
      <defs>
       <path d="M 12.40625 8.296875 
L 28.515625 8.296875 
L 28.515625 63.921875 
L 10.984375 60.40625 
L 10.984375 69.390625 
L 28.421875 72.90625 
L 38.28125 72.90625 
L 38.28125 8.296875 
L 54.390625 8.296875 
L 54.390625 0 
L 12.40625 0 
z
" id="DejaVuSans-49"/>
       <path d="M 10.984375 1.515625 
L 10.984375 10.5 
Q 14.703125 8.734375 18.5 7.8125 
Q 22.3125 6.890625 25.984375 6.890625 
Q 35.75 6.890625 40.890625 13.453125 
Q 46.046875 20.015625 46.78125 33.40625 
Q 43.953125 29.203125 39.59375 26.953125 
Q 35.25 24.703125 29.984375 24.703125 
Q 19.046875 24.703125 12.671875 31.3125 
Q 6.296875 37.9375 6.296875 49.421875 
Q 6.296875 60.640625 12.9375 67.421875 
Q 19.578125 74.21875 30.609375 74.21875 
Q 43.265625 74.21875 49.921875 64.515625 
Q 56.59375 54.828125 56.59375 36.375 
Q 56.59375 19.140625 48.40625 8.859375 
Q 40.234375 -1.421875 26.421875 -1.421875 
Q 22.703125 -1.421875 18.890625 -0.6875 
Q 15.09375 0.046875 10.984375 1.515625 
z
M 30.609375 32.421875 
Q 37.25 32.421875 41.125 36.953125 
Q 45.015625 41.5 45.015625 49.421875 
Q 45.015625 57.28125 41.125 61.84375 
Q 37.25 66.40625 30.609375 66.40625 
Q 23.96875 66.40625 20.09375 61.84375 
Q 16.21875 57.28125 16.21875 49.421875 
Q 16.21875 41.5 20.09375 36.953125 
Q 23.96875 32.421875 30.609375 32.421875 
z
" id="DejaVuSans-57"/>
       <path d="M 31.78125 66.40625 
Q 24.171875 66.40625 20.328125 58.90625 
Q 16.5 51.421875 16.5 36.375 
Q 16.5 21.390625 20.328125 13.890625 
Q 24.171875 6.390625 31.78125 6.390625 
Q 39.453125 6.390625 43.28125 13.890625 
Q 47.125 21.390625 47.125 36.375 
Q 47.125 51.421875 43.28125 58.90625 
Q 39.453125 66.40625 31.78125 66.40625 
z
M 31.78125 74.21875 
Q 44.046875 74.21875 50.515625 64.515625 
Q 56.984375 54.828125 56.984375 36.375 
Q 56.984375 17.96875 50.515625 8.265625 
Q 44.046875 -1.421875 31.78125 -1.421875 
Q 19.53125 -1.421875 13.0625 8.265625 
Q 6.59375 17.96875 6.59375 36.375 
Q 6.59375 54.828125 13.0625 64.515625 
Q 19.53125 74.21875 31.78125 74.21875 
z
" id="DejaVuSans-48"/>
      </defs>
      <g transform="translate(181.050207 329.598437)scale(0.1 -0.1)">
       <use xlink:href="#DejaVuSans-49"/>
       <use x="63.623047" xlink:href="#DejaVuSans-57"/>
       <use x="127.246094" xlink:href="#DejaVuSans-49"/>
       <use x="190.869141" xlink:href="#DejaVuSans-48"/>
      </g>
     </g>
    </g>
    <g id="xtick_2">
     <g id="line2d_2">
      <g>
       <use style="stroke:#000000;stroke-width:0.8;" x="286.006612" xlink:href="#m8c98c685c4" y="315"/>
      </g>
     </g>
     <g id="text_2">
      <!-- 1920 -->
      <defs>
       <path d="M 19.1875 8.296875 
L 53.609375 8.296875 
L 53.609375 0 
L 7.328125 0 
L 7.328125 8.296875 
Q 12.9375 14.109375 22.625 23.890625 
Q 32.328125 33.6875 34.8125 36.53125 
Q 39.546875 41.84375 41.421875 45.53125 
Q 43.3125 49.21875 43.3125 52.78125 
Q 43.3125 58.59375 39.234375 62.25 
Q 35.15625 65.921875 28.609375 65.921875 
Q 23.96875 65.921875 18.8125 64.3125 
Q 13.671875 62.703125 7.8125 59.421875 
L 7.8125 69.390625 
Q 13.765625 71.78125 18.9375 73 
Q 24.125 74.21875 28.421875 74.21875 
Q 39.75 74.21875 46.484375 68.546875 
Q 53.21875 62.890625 53.21875 53.421875 
Q 53.21875 48.921875 51.53125 44.890625 
Q 49.859375 40.875 45.40625 35.40625 
Q 44.1875 33.984375 37.640625 27.21875 
Q 31.109375 20.453125 19.1875 8.296875 
z
" id="DejaVuSans-50"/>
      </defs>
      <g transform="translate(273.281612 329.598437)scale(0.1 -0.1)">
       <use xlink:href="#DejaVuSans-49"/>
       <use x="63.623047" xlink:href="#DejaVuSans-57"/>
       <use x="127.246094" xlink:href="#DejaVuSans-50"/>
       <use x="190.869141" xlink:href="#DejaVuSans-48"/>
      </g>
     </g>
    </g>
    <g id="xtick_3">
     <g id="line2d_3">
      <g>
       <use style="stroke:#000000;stroke-width:0.8;" x="378.238017" xlink:href="#m8c98c685c4" y="315"/>
      </g>
     </g>
     <g id="text_3">
      <!-- 1930 -->
      <defs>
       <path d="M 40.578125 39.3125 
Q 47.65625 37.796875 51.625 33 
Q 55.609375 28.21875 55.609375 21.1875 
Q 55.609375 10.40625 48.1875 4.484375 
Q 40.765625 -1.421875 27.09375 -1.421875 
Q 22.515625 -1.421875 17.65625 -0.515625 
Q 12.796875 0.390625 7.625 2.203125 
L 7.625 11.71875 
Q 11.71875 9.328125 16.59375 8.109375 
Q 21.484375 6.890625 26.8125 6.890625 
Q 36.078125 6.890625 40.9375 10.546875 
Q 45.796875 14.203125 45.796875 21.1875 
Q 45.796875 27.640625 41.28125 31.265625 
Q 36.765625 34.90625 28.71875 34.90625 
L 20.21875 34.90625 
L 20.21875 43.015625 
L 29.109375 43.015625 
Q 36.375 43.015625 40.234375 45.921875 
Q 44.09375 48.828125 44.09375 54.296875 
Q 44.09375 59.90625 40.109375 62.90625 
Q 36.140625 65.921875 28.71875 65.921875 
Q 24.65625 65.921875 20.015625 65.03125 
Q 15.375 64.15625 9.8125 62.3125 
L 9.8125 71.09375 
Q 15.4375 72.65625 20.34375 73.4375 
Q 25.25 74.21875 29.59375 74.21875 
Q 40.828125 74.21875 47.359375 69.109375 
Q 53.90625 64.015625 53.90625 55.328125 
Q 53.90625 49.265625 50.4375 45.09375 
Q 46.96875 40.921875 40.578125 39.3125 
z
" id="DejaVuSans-51"/>
      </defs>
      <g transform="translate(365.513017 329.598437)scale(0.1 -0.1)">
       <use xlink:href="#DejaVuSans-49"/>
       <use x="63.623047" xlink:href="#DejaVuSans-57"/>
       <use x="127.246094" xlink:href="#DejaVuSans-51"/>
       <use x="190.869141" xlink:href="#DejaVuSans-48"/>
      </g>
     </g>
    </g>
    <g id="xtick_4">
     <g id="line2d_4">
      <g>
       <use style="stroke:#000000;stroke-width:0.8;" x="470.469421" xlink:href="#m8c98c685c4" y="315"/>
      </g>
     </g>
     <g id="text_4">
      <!-- 1940 -->
      <defs>
       <path d="M 37.796875 64.3125 
L 12.890625 25.390625 
L 37.796875 25.390625 
z
M 35.203125 72.90625 
L 47.609375 72.90625 
L 47.609375 25.390625 
L 58.015625 25.390625 
L 58.015625 17.1875 
L 47.609375 17.1875 
L 47.609375 0 
L 37.796875 0 
L 37.796875 17.1875 
L 4.890625 17.1875 
L 4.890625 26.703125 
z
" id="DejaVuSans-52"/>
      </defs>
      <g transform="translate(457.744421 329.598437)scale(0.1 -0.1)">
       <use xlink:href="#DejaVuSans-49"/>
       <use x="63.623047" xlink:href="#DejaVuSans-57"/>
       <use x="127.246094" xlink:href="#DejaVuSans-52"/>
       <use x="190.869141" xlink:href="#DejaVuSans-48"/>
      </g>
     </g>
    </g>
    <g id="xtick_5">
     <g id="line2d_5">
      <g>
       <use style="stroke:#000000;stroke-width:0.8;" x="562.700826" xlink:href="#m8c98c685c4" y="315"/>
      </g>
     </g>
     <g id="text_5">
      <!-- 1950 -->
      <defs>
       <path d="M 10.796875 72.90625 
L 49.515625 72.90625 
L 49.515625 64.59375 
L 19.828125 64.59375 
L 19.828125 46.734375 
Q 21.96875 47.46875 24.109375 47.828125 
Q 26.265625 48.1875 28.421875 48.1875 
Q 40.625 48.1875 47.75 41.5 
Q 54.890625 34.8125 54.890625 23.390625 
Q 54.890625 11.625 47.5625 5.09375 
Q 40.234375 -1.421875 26.90625 -1.421875 
Q 22.3125 -1.421875 17.546875 -0.640625 
Q 12.796875 0.140625 7.71875 1.703125 
L 7.71875 11.625 
Q 12.109375 9.234375 16.796875 8.0625 
Q 21.484375 6.890625 26.703125 6.890625 
Q 35.15625 6.890625 40.078125 11.328125 
Q 45.015625 15.765625 45.015625 23.390625 
Q 45.015625 31 40.078125 35.4375 
Q 35.15625 39.890625 26.703125 39.890625 
Q 22.75 39.890625 18.8125 39.015625 
Q 14.890625 38.140625 10.796875 36.28125 
z
" id="DejaVuSans-53"/>
      </defs>
      <g transform="translate(549.975826 329.598437)scale(0.1 -0.1)">
       <use xlink:href="#DejaVuSans-49"/>
       <use x="63.623047" xlink:href="#DejaVuSans-57"/>
       <use x="127.246094" xlink:href="#DejaVuSans-53"/>
       <use x="190.869141" xlink:href="#DejaVuSans-48"/>
      </g>
     </g>
    </g>
    <g id="xtick_6">
     <g id="line2d_6">
      <g>
       <use style="stroke:#000000;stroke-width:0.8;" x="654.932231" xlink:href="#m8c98c685c4" y="315"/>
      </g>
     </g>
     <g id="text_6">
      <!-- 1960 -->
      <defs>
       <path d="M 33.015625 40.375 
Q 26.375 40.375 22.484375 35.828125 
Q 18.609375 31.296875 18.609375 23.390625 
Q 18.609375 15.53125 22.484375 10.953125 
Q 26.375 6.390625 33.015625 6.390625 
Q 39.65625 6.390625 43.53125 10.953125 
Q 47.40625 15.53125 47.40625 23.390625 
Q 47.40625 31.296875 43.53125 35.828125 
Q 39.65625 40.375 33.015625 40.375 
z
M 52.59375 71.296875 
L 52.59375 62.3125 
Q 48.875 64.0625 45.09375 64.984375 
Q 41.3125 65.921875 37.59375 65.921875 
Q 27.828125 65.921875 22.671875 59.328125 
Q 17.53125 52.734375 16.796875 39.40625 
Q 19.671875 43.65625 24.015625 45.921875 
Q 28.375 48.1875 33.59375 48.1875 
Q 44.578125 48.1875 50.953125 41.515625 
Q 57.328125 34.859375 57.328125 23.390625 
Q 57.328125 12.15625 50.6875 5.359375 
Q 44.046875 -1.421875 33.015625 -1.421875 
Q 20.359375 -1.421875 13.671875 8.265625 
Q 6.984375 17.96875 6.984375 36.375 
Q 6.984375 53.65625 15.1875 63.9375 
Q 23.390625 74.21875 37.203125 74.21875 
Q 40.921875 74.21875 44.703125 73.484375 
Q 48.484375 72.75 52.59375 71.296875 
z
" id="DejaVuSans-54"/>
      </defs>
      <g transform="translate(642.207231 329.598437)scale(0.1 -0.1)">
       <use xlink:href="#DejaVuSans-49"/>
       <use x="63.623047" xlink:href="#DejaVuSans-57"/>
       <use x="127.246094" xlink:href="#DejaVuSans-54"/>
       <use x="190.869141" xlink:href="#DejaVuSans-48"/>
      </g>
     </g>
    </g>
    <g id="xtick_7">
     <g id="line2d_7">
      <g>
       <use style="stroke:#000000;stroke-width:0.8;" x="747.163636" xlink:href="#m8c98c685c4" y="315"/>
      </g>
     </g>
     <g id="text_7">
      <!-- 1970 -->
      <defs>
       <path d="M 8.203125 72.90625 
L 55.078125 72.90625 
L 55.078125 68.703125 
L 28.609375 0 
L 18.3125 0 
L 43.21875 64.59375 
L 8.203125 64.59375 
z
" id="DejaVuSans-55"/>
      </defs>
      <g transform="translate(734.438636 329.598437)scale(0.1 -0.1)">
       <use xlink:href="#DejaVuSans-49"/>
       <use x="63.623047" xlink:href="#DejaVuSans-57"/>
       <use x="127.246094" xlink:href="#DejaVuSans-55"/>
       <use x="190.869141" xlink:href="#DejaVuSans-48"/>
      </g>
     </g>
    </g>
   </g>
   <g id="matplotlib.axis_2">
    <g id="ytick_1">
     <g id="line2d_8">
      <defs>
       <path d="M 0 0 
L -3.5 0 
" id="m7494922879" style="stroke:#000000;stroke-width:0.8;"/>
      </defs>
      <g>
       <use style="stroke:#000000;stroke-width:0.8;" x="108" xlink:href="#m7494922879" y="303.007844"/>
      </g>
     </g>
     <g id="text_8">
      <!-- 0.00 -->
      <defs>
       <path d="M 10.6875 12.40625 
L 21 12.40625 
L 21 0 
L 10.6875 0 
z
" id="DejaVuSans-46"/>
      </defs>
      <g transform="translate(78.734375 306.807063)scale(0.1 -0.1)">
       <use xlink:href="#DejaVuSans-48"/>
       <use x="63.623047" xlink:href="#DejaVuSans-46"/>
       <use x="95.410156" xlink:href="#DejaVuSans-48"/>
       <use x="159.033203" xlink:href="#DejaVuSans-48"/>
      </g>
     </g>
    </g>
    <g id="ytick_2">
     <g id="line2d_9">
      <g>
       <use style="stroke:#000000;stroke-width:0.8;" x="108" xlink:href="#m7494922879" y="267.580571"/>
      </g>
     </g>
     <g id="text_9">
      <!-- 0.05 -->
      <g transform="translate(78.734375 271.379789)scale(0.1 -0.1)">
       <use xlink:href="#DejaVuSans-48"/>
       <use x="63.623047" xlink:href="#DejaVuSans-46"/>
       <use x="95.410156" xlink:href="#DejaVuSans-48"/>
       <use x="159.033203" xlink:href="#DejaVuSans-53"/>
      </g>
     </g>
    </g>
    <g id="ytick_3">
     <g id="line2d_10">
      <g>
       <use style="stroke:#000000;stroke-width:0.8;" x="108" xlink:href="#m7494922879" y="232.153297"/>
      </g>
     </g>
     <g id="text_10">
      <!-- 0.10 -->
      <g transform="translate(78.734375 235.952516)scale(0.1 -0.1)">
       <use xlink:href="#DejaVuSans-48"/>
       <use x="63.623047" xlink:href="#DejaVuSans-46"/>
       <use x="95.410156" xlink:href="#DejaVuSans-49"/>
       <use x="159.033203" xlink:href="#DejaVuSans-48"/>
      </g>
     </g>
    </g>
    <g id="ytick_4">
     <g id="line2d_11">
      <g>
       <use style="stroke:#000000;stroke-width:0.8;" x="108" xlink:href="#m7494922879" y="196.726023"/>
      </g>
     </g>
     <g id="text_11">
      <!-- 0.15 -->
      <g transform="translate(78.734375 200.525242)scale(0.1 -0.1)">
       <use xlink:href="#DejaVuSans-48"/>
       <use x="63.623047" xlink:href="#DejaVuSans-46"/>
       <use x="95.410156" xlink:href="#DejaVuSans-49"/>
       <use x="159.033203" xlink:href="#DejaVuSans-53"/>
      </g>
     </g>
    </g>
    <g id="ytick_5">
     <g id="line2d_12">
      <g>
       <use style="stroke:#000000;stroke-width:0.8;" x="108" xlink:href="#m7494922879" y="161.29875"/>
      </g>
     </g>
     <g id="text_12">
      <!-- 0.20 -->
      <g transform="translate(78.734375 165.097969)scale(0.1 -0.1)">
       <use xlink:href="#DejaVuSans-48"/>
       <use x="63.623047" xlink:href="#DejaVuSans-46"/>
       <use x="95.410156" xlink:href="#DejaVuSans-50"/>
       <use x="159.033203" xlink:href="#DejaVuSans-48"/>
      </g>
     </g>
    </g>
    <g id="ytick_6">
     <g id="line2d_13">
      <g>
       <use style="stroke:#000000;stroke-width:0.8;" x="108" xlink:href="#m7494922879" y="125.871476"/>
      </g>
     </g>
     <g id="text_13">
      <!-- 0.25 -->
      <g transform="translate(78.734375 129.670695)scale(0.1 -0.1)">
       <use xlink:href="#DejaVuSans-48"/>
       <use x="63.623047" xlink:href="#DejaVuSans-46"/>
       <use x="95.410156" xlink:href="#DejaVuSans-50"/>
       <use x="159.033203" xlink:href="#DejaVuSans-53"/>
      </g>
     </g>
    </g>
    <g id="ytick_7">
     <g id="line2d_14">
      <g>
       <use style="stroke:#000000;stroke-width:0.8;" x="108" xlink:href="#m7494922879" y="90.444203"/>
      </g>
     </g>
     <g id="text_14">
      <!-- 0.30 -->
      <g transform="translate(78.734375 94.243421)scale(0.1 -0.1)">
       <use xlink:href="#DejaVuSans-48"/>
       <use x="63.623047" xlink:href="#DejaVuSans-46"/>
       <use x="95.410156" xlink:href="#DejaVuSans-51"/>
       <use x="159.033203" xlink:href="#DejaVuSans-48"/>
      </g>
     </g>
    </g>
    <g id="ytick_8">
     <g id="line2d_15">
      <g>
       <use style="stroke:#000000;stroke-width:0.8;" x="108" xlink:href="#m7494922879" y="55.016929"/>
      </g>
     </g>
     <g id="text_15">
      <!-- 0.35 -->
      <g transform="translate(78.734375 58.816148)scale(0.1 -0.1)">
       <use xlink:href="#DejaVuSans-48"/>
       <use x="63.623047" xlink:href="#DejaVuSans-46"/>
       <use x="95.410156" xlink:href="#DejaVuSans-51"/>
       <use x="159.033203" xlink:href="#DejaVuSans-53"/>
      </g>
     </g>
    </g>
   </g>
   <g id="line2d_16">
    <path clip-path="url(#p1d323779a6)" d="M 138.436364 302.553654 
L 147.659504 302.645455 
L 156.882645 302.6122 
L 166.105785 302.573661 
L 175.328926 302.530499 
L 184.552066 302.483297 
L 193.775207 302.439972 
L 202.998347 302.37703 
L 212.221488 302.34802 
L 221.444628 302.315582 
L 230.667769 302.290392 
L 239.890909 302.213749 
L 249.11405 302.108308 
L 258.33719 301.907839 
L 267.560331 301.66419 
L 276.783471 301.395733 
L 286.006612 301.279773 
L 295.229752 301.232882 
L 304.452893 301.193358 
L 313.676033 301.283247 
L 322.899174 301.358105 
L 332.122314 301.336487 
L 341.345455 301.372135 
L 350.568595 301.457947 
L 359.791736 301.453145 
L 369.014876 301.543089 
L 378.238017 301.636752 
L 387.461157 301.647361 
L 396.684298 301.672019 
L 405.907438 301.733313 
L 415.130579 301.754027 
L 424.353719 301.757538 
L 433.57686 301.748773 
L 442.8 301.753866 
L 452.02314 301.776656 
L 461.246281 301.148645 
L 470.469421 299.921987 
L 479.692562 298.873351 
L 488.915702 296.783556 
L 498.138843 294.687845 
L 507.361983 293.079639 
L 516.585124 292.889184 
L 525.808264 292.639582 
L 535.031405 293.210892 
L 544.254545 293.773337 
L 553.477686 294.348632 
L 562.700826 294.212138 
L 571.923967 293.650372 
L 581.147107 293.407179 
L 590.370248 293.085806 
L 599.593388 292.974971 
L 608.816529 292.77009 
L 618.039669 292.945861 
L 627.26281 293.011398 
L 636.48595 293.109356 
L 645.709091 293.15419 
L 654.932231 293.285345 
L 664.155372 293.404583 
L 673.378512 293.427446 
L 682.601653 293.61684 
L 691.824793 293.916086 
L 701.047934 294.05347 
L 710.271074 294.182555 
L 719.494215 294.423054 
L 728.717355 294.557402 
L 737.940496 294.496308 
L 747.163636 294.396525 
" style="fill:none;stroke:#1f77b4;stroke-linecap:square;stroke-width:2;"/>
   </g>
   <g id="line2d_17">
    <path clip-path="url(#p1d323779a6)" d="M 138.436364 290.930515 
L 147.659504 290.963823 
L 156.882645 290.741483 
L 166.105785 290.901852 
L 175.328926 290.799974 
L 184.552066 290.788188 
L 193.775207 290.801599 
L 202.998347 290.533739 
L 212.221488 290.358667 
L 221.444628 290.565539 
L 230.667769 290.378368 
L 239.890909 290.437506 
L 249.11405 290.813463 
L 258.33719 290.978052 
L 267.560331 291.043317 
L 276.783471 291.245227 
L 286.006612 291.316049 
L 295.229752 291.414342 
L 304.452893 291.342966 
L 313.676033 291.180868 
L 322.899174 291.194835 
L 332.122314 291.332424 
L 341.345455 291.355031 
L 350.568595 291.311925 
L 359.791736 291.505642 
L 369.014876 291.629131 
L 378.238017 291.651156 
L 387.461157 291.850034 
L 396.684298 292.221678 
L 405.907438 292.438552 
L 415.130579 292.516685 
L 424.353719 292.774194 
L 433.57686 292.81132 
L 442.8 292.762082 
L 452.02314 292.860406 
L 461.246281 293.494291 
L 470.469421 294.139105 
L 479.692562 294.76288 
L 488.915702 296.393409 
L 498.138843 297.971001 
L 507.361983 299.096361 
L 516.585124 300.15268 
L 525.808264 301.384122 
L 535.031405 301.640914 
L 544.254545 301.805642 
L 553.477686 302.011006 
L 562.700826 302.01174 
L 571.923967 301.960584 
L 581.147107 301.882493 
L 590.370248 301.826331 
L 599.593388 301.751168 
L 608.816529 301.773471 
L 618.039669 301.801251 
L 627.26281 301.812236 
L 636.48595 301.794327 
L 645.709091 301.783831 
L 654.932231 301.759684 
L 664.155372 301.690894 
L 673.378512 301.708456 
L 682.601653 301.724235 
L 691.824793 301.754384 
L 701.047934 301.758704 
L 710.271074 301.810815 
L 719.494215 301.800543 
L 728.717355 301.803344 
L 737.940496 301.759006 
L 747.163636 301.731917 
" style="fill:none;stroke:#ff7f0e;stroke-linecap:square;stroke-width:2;"/>
   </g>
   <g id="line2d_18">
    <path clip-path="url(#p1d323779a6)" d="M 138.436364 281.254838 
L 147.659504 281.557238 
L 156.882645 281.081021 
L 166.105785 281.078543 
L 175.328926 280.589461 
L 184.552066 280.319072 
L 193.775207 279.965046 
L 202.998347 279.396272 
L 212.221488 279.228324 
L 221.444628 279.389468 
L 230.667769 279.228536 
L 239.890909 279.26362 
L 249.11405 278.955784 
L 258.33719 278.342136 
L 267.560331 277.658153 
L 276.783471 276.682538 
L 286.006612 275.886834 
L 295.229752 275.687946 
L 304.452893 275.086622 
L 313.676033 274.867111 
L 322.899174 274.650568 
L 332.122314 274.537556 
L 341.345455 274.54302 
L 350.568595 274.447933 
L 359.791736 274.308519 
L 369.014876 274.626229 
L 378.238017 274.825955 
L 387.461157 275.080084 
L 396.684298 275.750824 
L 405.907438 276.291163 
L 415.130579 276.362686 
L 424.353719 276.727969 
L 433.57686 276.562244 
L 442.8 276.195513 
L 452.02314 276.437738 
L 461.246281 276.338129 
L 470.469421 274.906905 
L 479.692562 273.578646 
L 488.915702 272.669125 
L 498.138843 271.657585 
L 507.361983 270.821826 
L 516.585124 272.747087 
L 525.808264 275.008531 
L 535.031405 276.091495 
L 544.254545 276.943261 
L 553.477686 277.684444 
L 562.700826 276.866959 
L 571.923967 275.452188 
L 581.147107 274.896633 
L 590.370248 274.115613 
L 599.593388 273.932189 
L 608.816529 273.308003 
L 618.039669 273.406191 
L 627.26281 273.4562 
L 636.48595 273.713718 
L 645.709091 273.683214 
L 654.932231 274.067721 
L 664.155372 274.132155 
L 673.378512 274.114129 
L 682.601653 274.443759 
L 691.824793 275.314595 
L 701.047934 275.992238 
L 710.271074 276.570527 
L 719.494215 277.293836 
L 728.717355 277.592685 
L 737.940496 277.243182 
L 747.163636 276.6317 
" style="fill:none;stroke:#2ca02c;stroke-linecap:square;stroke-width:2;"/>
   </g>
   <g id="line2d_19">
    <path clip-path="url(#p1d323779a6)" d="M 138.436364 246.074197 
L 147.659504 246.19873 
L 156.882645 246.812254 
L 166.105785 247.858991 
L 175.328926 248.194089 
L 184.552066 248.376874 
L 193.775207 248.249578 
L 202.998347 248.818495 
L 212.221488 249.176383 
L 221.444628 249.276571 
L 230.667769 249.879233 
L 239.890909 250.886098 
L 249.11405 251.6815 
L 258.33719 252.721399 
L 267.560331 254.517769 
L 276.783471 255.853733 
L 286.006612 256.913586 
L 295.229752 257.001104 
L 304.452893 256.902839 
L 313.676033 256.025205 
L 322.899174 255.108495 
L 332.122314 254.281981 
L 341.345455 253.870925 
L 350.568595 253.54924 
L 359.791736 253.340075 
L 369.014876 253.291994 
L 378.238017 253.102511 
L 387.461157 252.901761 
L 396.684298 252.83149 
L 405.907438 253.188638 
L 415.130579 253.188882 
L 424.353719 253.622019 
L 433.57686 254.449122 
L 442.8 255.12391 
L 452.02314 255.499401 
L 461.246281 256.963888 
L 470.469421 258.650865 
L 479.692562 259.77359 
L 488.915702 260.671188 
L 498.138843 261.646173 
L 507.361983 262.351816 
L 516.585124 262.31341 
L 525.808264 262.425171 
L 535.031405 263.09441 
L 544.254545 263.669722 
L 553.477686 263.735698 
L 562.700826 263.978618 
L 571.923967 264.25588 
L 581.147107 264.1114 
L 590.370248 263.874298 
L 599.593388 263.558587 
L 608.816529 263.322388 
L 618.039669 263.348974 
L 627.26281 263.613931 
L 636.48595 263.950689 
L 645.709091 264.415486 
L 654.932231 264.973093 
L 664.155372 265.530507 
L 673.378512 266.193179 
L 682.601653 266.864317 
L 691.824793 267.406291 
L 701.047934 268.163385 
L 710.271074 268.700684 
L 719.494215 269.232827 
L 728.717355 269.774672 
L 737.940496 270.709574 
L 747.163636 271.467834 
" style="fill:none;stroke:#d62728;stroke-linecap:square;stroke-width:2;"/>
   </g>
   <g id="line2d_20">
    <path clip-path="url(#p1d323779a6)" d="M 138.436364 124.938047 
L 147.659504 125.042309 
L 156.882645 125.193304 
L 166.105785 126.033185 
L 175.328926 125.952818 
L 184.552066 124.593644 
L 193.775207 123.16515 
L 202.998347 123.550356 
L 212.221488 123.15074 
L 221.444628 121.617817 
L 230.667769 122.200992 
L 239.890909 122.90294 
L 249.11405 122.759037 
L 258.33719 123.074978 
L 267.560331 125.16663 
L 276.783471 125.808587 
L 286.006612 125.18558 
L 295.229752 121.352066 
L 304.452893 117.280223 
L 313.676033 113.370224 
L 322.899174 108.024861 
L 332.122314 103.971869 
L 341.345455 102.369669 
L 350.568595 101.420078 
L 359.791736 99.772244 
L 369.014876 99.537748 
L 378.238017 98.955003 
L 387.461157 98.60058 
L 396.684298 97.348956 
L 405.907438 96.315141 
L 415.130579 95.366493 
L 424.353719 94.338848 
L 433.57686 94.383618 
L 442.8 94.210776 
L 452.02314 93.381171 
L 461.246281 93.849554 
L 470.469421 97.727532 
L 479.692562 98.659258 
L 488.915702 99.197951 
L 498.138843 98.950896 
L 507.361983 100.317691 
L 516.585124 93.717713 
L 525.808264 86.313966 
L 535.031405 83.083493 
L 544.254545 82.400763 
L 553.477686 78.703368 
L 562.700826 79.982055 
L 571.923967 83.241252 
L 581.147107 83.883132 
L 590.370248 83.723753 
L 599.593388 83.468137 
L 608.816529 82.890111 
L 618.039669 82.490269 
L 627.26281 81.528684 
L 636.48595 80.481826 
L 645.709091 79.43796 
L 654.932231 77.53548 
L 664.155372 76.252271 
L 673.378512 75.601074 
L 682.601653 74.133501 
L 691.824793 73.512887 
L 701.047934 74.666189 
L 710.271074 75.995474 
L 719.494215 76.981338 
L 728.717355 78.785209 
L 737.940496 81.742218 
L 747.163636 83.662282 
" style="fill:none;stroke:#9467bd;stroke-linecap:square;stroke-width:2;"/>
   </g>
   <g id="line2d_21">
    <path clip-path="url(#p1d323779a6)" d="M 138.436364 302.442708 
L 147.659504 302.516718 
L 156.882645 302.499676 
L 166.105785 302.46685 
L 175.328926 302.422158 
L 184.552066 302.390003 
L 193.775207 302.370764 
L 202.998347 302.310345 
L 212.221488 302.322864 
L 221.444628 302.307774 
L 230.667769 302.309286 
L 239.890909 302.257308 
L 249.11405 302.181542 
L 258.33719 302.035164 
L 267.560331 301.898523 
L 276.783471 301.641686 
L 286.006612 301.342883 
L 295.229752 301.092181 
L 304.452893 300.623024 
L 313.676033 300.267607 
L 322.899174 299.56145 
L 332.122314 298.711752 
L 341.345455 297.685887 
L 350.568595 296.60451 
L 359.791736 294.830466 
L 369.014876 292.960647 
L 378.238017 291.350814 
L 387.461157 289.34069 
L 396.684298 287.693199 
L 405.907438 286.678017 
L 415.130579 286.025365 
L 424.353719 285.371968 
L 433.57686 285.372982 
L 442.8 285.170767 
L 452.02314 285.127413 
L 461.246281 285.351728 
L 470.469421 285.263791 
L 479.692562 285.387521 
L 488.915702 286.231971 
L 498.138843 287.349872 
L 507.361983 288.483999 
L 516.585124 290.37521 
L 525.808264 291.692002 
L 535.031405 292.2028 
L 544.254545 292.223893 
L 553.477686 291.851484 
L 562.700826 290.881427 
L 571.923967 290.214391 
L 581.147107 289.66504 
L 590.370248 289.111766 
L 599.593388 288.772554 
L 608.816529 288.492719 
L 618.039669 288.289841 
L 627.26281 288.304959 
L 636.48595 288.341286 
L 645.709091 288.54028 
L 654.932231 288.821429 
L 664.155372 289.088454 
L 673.378512 289.281854 
L 682.601653 289.528827 
L 691.824793 289.784851 
L 701.047934 290.133551 
L 710.271074 290.543976 
L 719.494215 290.827385 
L 728.717355 291.158397 
L 737.940496 291.394257 
L 747.163636 291.683188 
" style="fill:none;stroke:#8c564b;stroke-linecap:square;stroke-width:2;"/>
   </g>
   <g id="line2d_22">
    <path clip-path="url(#p1d323779a6)" d="M 138.436364 250.961999 
L 147.659504 251.513667 
L 156.882645 252.797377 
L 166.105785 253.575812 
L 175.328926 253.631933 
L 184.552066 253.382479 
L 193.775207 252.868204 
L 202.998347 251.96594 
L 212.221488 252.244867 
L 221.444628 252.197764 
L 230.667769 253.733957 
L 239.890909 255.165412 
L 249.11405 256.379942 
L 258.33719 258.295931 
L 267.560331 261.224624 
L 276.783471 262.839682 
L 286.006612 263.042098 
L 295.229752 263.507473 
L 304.452893 262.199182 
L 313.676033 260.221073 
L 322.899174 258.2187 
L 332.122314 257.436947 
L 341.345455 256.191727 
L 350.568595 255.320364 
L 359.791736 254.834996 
L 369.014876 254.214835 
L 378.238017 253.32059 
L 387.461157 252.997509 
L 396.684298 253.084371 
L 405.907438 253.07144 
L 415.130579 253.304459 
L 424.353719 253.801734 
L 433.57686 254.018307 
L 442.8 253.891875 
L 452.02314 253.455203 
L 461.246281 253.854376 
L 470.469421 253.405263 
L 479.692562 253.499685 
L 488.915702 255.099778 
L 498.138843 257.313871 
L 507.361983 259.232025 
L 516.585124 263.147611 
L 525.808264 265.738167 
L 535.031405 266.598111 
L 544.254545 266.708432 
L 553.477686 266.175176 
L 562.700826 263.612713 
L 571.923967 261.820159 
L 581.147107 260.223704 
L 590.370248 258.490693 
L 599.593388 256.589875 
L 608.816529 255.397805 
L 618.039669 254.397312 
L 627.26281 253.820212 
L 636.48595 253.385468 
L 645.709091 253.591403 
L 654.932231 254.075088 
L 664.155372 254.620625 
L 673.378512 254.825943 
L 682.601653 255.850777 
L 691.824793 256.829669 
L 701.047934 257.867362 
L 710.271074 258.953809 
L 719.494215 259.866974 
L 728.717355 260.147693 
L 737.940496 260.4191 
L 747.163636 260.789426 
" style="fill:none;stroke:#e377c2;stroke-linecap:square;stroke-width:2;"/>
   </g>
   <g id="line2d_23">
    <path clip-path="url(#p1d323779a6)" d="M 138.436364 168.425617 
L 147.659504 168.735612 
L 156.882645 167.399475 
L 166.105785 164.848815 
L 175.328926 164.556915 
L 184.552066 164.316212 
L 193.775207 163.937841 
L 202.998347 164.188943 
L 212.221488 165.42052 
L 221.444628 167.617851 
L 230.667769 169.571887 
L 239.890909 170.666659 
L 249.11405 175.238348 
L 258.33719 178.509342 
L 267.560331 181.708851 
L 276.783471 183.481541 
L 286.006612 186.02218 
L 295.229752 187.986156 
L 304.452893 190.876047 
L 313.676033 192.231282 
L 322.899174 195.086947 
L 332.122314 197.62907 
L 341.345455 199.284109 
L 350.568595 200.927555 
L 359.791736 203.122888 
L 369.014876 204.081508 
L 378.238017 204.851752 
L 387.461157 205.94881 
L 396.684298 206.69162 
L 405.907438 207.090283 
L 415.130579 207.431686 
L 424.353719 208.583383 
L 433.57686 208.516147 
L 442.8 209.358449 
L 452.02314 209.988031 
L 461.246281 210.763394 
L 470.469421 210.980038 
L 479.692562 211.885933 
L 488.915702 214.578319 
L 498.138843 218.764336 
L 507.361983 221.686058 
L 516.585124 222.839956 
L 525.808264 224.752529 
L 535.031405 223.135066 
L 544.254545 219.941769 
L 553.477686 218.615671 
L 562.700826 218.942542 
L 571.923967 219.205871 
L 581.147107 219.064675 
L 590.370248 218.828626 
L 599.593388 218.012051 
L 608.816529 218.09076 
L 618.039669 218.024457 
L 627.26281 218.486419 
L 636.48595 219.768561 
L 645.709091 220.532948 
L 654.932231 220.960588 
L 664.155372 221.339134 
L 673.378512 222.109188 
L 682.601653 221.892457 
L 691.824793 221.64265 
L 701.047934 220.73159 
L 710.271074 219.524457 
L 719.494215 218.403375 
L 728.717355 217.485277 
L 737.940496 216.05089 
L 747.163636 215.401831 
" style="fill:none;stroke:#7f7f7f;stroke-linecap:square;stroke-width:2;"/>
   </g>
   <g id="line2d_24">
    <path clip-path="url(#p1d323779a6)" d="M 138.436364 301.750237 
L 147.659504 301.982942 
L 156.882645 301.833019 
L 166.105785 301.692806 
L 175.328926 301.622941 
L 184.552066 301.550996 
L 193.775207 301.435563 
L 202.998347 301.324326 
L 212.221488 301.314541 
L 221.444628 301.22674 
L 230.667769 301.230925 
L 239.890909 301.081959 
L 249.11405 300.853948 
L 258.33719 300.422583 
L 267.560331 299.944268 
L 276.783471 299.382094 
L 286.006612 299.123722 
L 295.229752 299.145832 
L 304.452893 299.176794 
L 313.676033 299.452488 
L 322.899174 299.5879 
L 332.122314 299.607726 
L 341.345455 299.675228 
L 350.568595 299.774528 
L 359.791736 299.722971 
L 369.014876 299.838873 
L 378.238017 300.001183 
L 387.461157 300.021848 
L 396.684298 300.150718 
L 405.907438 300.296523 
L 415.130579 300.448458 
L 424.353719 300.479844 
L 433.57686 300.462619 
L 442.8 300.325626 
L 452.02314 300.304709 
L 461.246281 298.253115 
L 470.469421 295.184992 
L 479.692562 292.415173 
L 488.915702 287.604494 
L 498.138843 283.097141 
L 507.361983 279.752688 
L 516.585124 277.320932 
L 525.808264 275.218692 
L 535.031405 274.992031 
L 544.254545 274.256356 
L 553.477686 274.464485 
L 562.700826 274.611575 
L 571.923967 274.345854 
L 581.147107 274.034107 
L 590.370248 273.766777 
L 599.593388 273.594451 
L 608.816529 273.583574 
L 618.039669 273.644382 
L 627.26281 273.946444 
L 636.48595 274.497157 
L 645.709091 274.699286 
L 654.932231 275.023446 
L 664.155372 275.181617 
L 673.378512 275.474701 
L 682.601653 275.483686 
L 691.824793 275.456549 
L 701.047934 275.18453 
L 710.271074 274.863166 
L 719.494215 274.502438 
L 728.717355 274.171307 
L 737.940496 273.730729 
L 747.163636 273.415804 
" style="fill:none;stroke:#bcbd22;stroke-linecap:square;stroke-width:2;"/>
   </g>
   <g id="line2d_25">
    <path clip-path="url(#p1d323779a6)" d="M 138.436364 237.479568 
L 147.659504 238.006413 
L 156.882645 237.417714 
L 166.105785 236.402992 
L 175.328926 236.170977 
L 184.552066 236.263654 
L 193.775207 236.239021 
L 202.998347 236.884441 
L 212.221488 237.971478 
L 221.444628 239.60674 
L 230.667769 241.07134 
L 239.890909 242.859686 
L 249.11405 245.780619 
L 258.33719 248.059433 
L 267.560331 250.074232 
L 276.783471 251.380131 
L 286.006612 252.961001 
L 295.229752 254.644931 
L 304.452893 256.418476 
L 313.676033 257.607784 
L 322.899174 259.547636 
L 332.122314 260.925285 
L 341.345455 261.656424 
L 350.568595 262.612235 
L 359.791736 263.655205 
L 369.014876 264.12933 
L 378.238017 264.702232 
L 387.461157 265.43415 
L 396.684298 265.916326 
L 405.907438 266.580501 
L 415.130579 267.115643 
L 424.353719 267.88646 
L 433.57686 268.150693 
L 442.8 268.921532 
L 452.02314 269.519083 
L 461.246281 272.069606 
L 470.469421 275.276757 
L 479.692562 278.500038 
L 488.915702 284.036105 
L 498.138843 289.616372 
L 507.361983 293.261929 
L 516.585124 296.39798 
L 525.808264 300.151093 
L 535.031405 300.780379 
L 544.254545 301.287019 
L 553.477686 301.816862 
L 562.700826 301.87333 
L 571.923967 301.840822 
L 581.147107 301.748581 
L 590.370248 301.750977 
L 599.593388 301.661036 
L 608.816529 301.710803 
L 618.039669 301.707714 
L 627.26281 301.723 
L 636.48595 301.705159 
L 645.709091 301.752852 
L 654.932231 301.771812 
L 664.155372 301.718694 
L 673.378512 301.715009 
L 682.601653 301.746257 
L 691.824793 301.78827 
L 701.047934 301.816822 
L 710.271074 301.873355 
L 719.494215 301.903142 
L 728.717355 301.945878 
L 737.940496 301.969451 
L 747.163636 301.97546 
" style="fill:none;stroke:#17becf;stroke-linecap:square;stroke-width:2;"/>
   </g>
   <g id="line2d_26">
    <path clip-path="url(#p1d323779a6)" d="M 138.436364 300.08134 
L 147.659504 301.09365 
L 156.882645 300.654246 
L 166.105785 300.226105 
L 175.328926 299.700552 
L 184.552066 299.181687 
L 193.775207 298.903331 
L 202.998347 298.261202 
L 212.221488 297.900828 
L 221.444628 297.145803 
L 230.667769 296.695845 
L 239.890909 295.462437 
L 249.11405 294.090074 
L 258.33719 291.757364 
L 267.560331 289.245285 
L 276.783471 286.796872 
L 286.006612 285.283029 
L 295.229752 284.847069 
L 304.452893 284.92968 
L 313.676033 286.16063 
L 322.899174 286.586265 
L 332.122314 286.883153 
L 341.345455 287.253756 
L 350.568595 287.403969 
L 359.791736 287.189106 
L 369.014876 287.750784 
L 378.238017 288.413858 
L 387.461157 288.429675 
L 396.684298 288.883613 
L 405.907438 289.028914 
L 415.130579 289.191459 
L 424.353719 288.848777 
L 433.57686 288.300262 
L 442.8 287.876315 
L 452.02314 287.831685 
L 461.246281 271.440106 
L 470.469421 248.493533 
L 479.692562 230.367211 
L 488.915702 187.36028 
L 498.138843 141.22519 
L 507.361983 110.898776 
L 516.585124 87.170569 
L 525.808264 60.378799 
L 535.031405 57.581376 
L 544.254545 57.186133 
L 553.477686 58.000044 
L 562.700826 60.655656 
L 571.923967 61.68901 
L 581.147107 64.879073 
L 590.370248 69.348906 
L 599.593388 73.818272 
L 608.816529 76.031857 
L 618.039669 77.316937 
L 627.26281 77.762366 
L 636.48595 76.720854 
L 645.709091 75.792464 
L 654.932231 75.082671 
L 664.155372 74.58301 
L 673.378512 73.059599 
L 682.601653 72.095248 
L 691.824793 69.847327 
L 701.047934 66.746936 
L 710.271074 63.904532 
L 719.494215 61.546921 
L 728.717355 59.239822 
L 737.940496 57.17568 
L 747.163636 55.554545 
" style="fill:none;stroke:#1f77b4;stroke-linecap:square;stroke-width:2;"/>
   </g>
   <g id="line2d_27">
    <path clip-path="url(#p1d323779a6)" d="M 138.436364 120.655938 
L 147.659504 117.292099 
L 156.882645 118.506889 
L 166.105785 119.889046 
L 175.328926 121.376339 
L 184.552066 123.902551 
L 193.775207 127.172588 
L 202.998347 127.937568 
L 212.221488 126.111426 
L 221.444628 124.281009 
L 230.667769 118.957897 
L 239.890909 114.351285 
L 249.11405 106.706093 
L 258.33719 101.444437 
L 267.560331 93.402815 
L 276.783471 91.040834 
L 286.006612 89.191924 
L 295.229752 89.636676 
L 304.452893 91.519446 
L 313.676033 94.881139 
L 322.899174 98.622895 
L 332.122314 100.894408 
L 341.345455 102.290746 
L 350.568595 102.718374 
L 359.791736 103.813402 
L 369.014876 103.94449 
L 378.238017 104.736851 
L 387.461157 105.296156 
L 396.684298 105.303844 
L 405.907438 104.836173 
L 415.130579 104.842815 
L 424.353719 103.355923 
L 433.57686 102.77257 
L 442.8 101.957947 
L 452.02314 101.367162 
L 461.246281 114.021824 
L 470.469421 133.59789 
L 479.692562 149.845372 
L 488.915702 186.922482 
L 498.138843 225.268375 
L 507.361983 248.565851 
L 516.585124 268.476326 
L 525.808264 291.846004 
L 535.031405 295.137691 
L 544.254545 297.352332 
L 553.477686 300.141788 
L 562.700826 299.919906 
L 571.923967 299.872275 
L 581.147107 299.75264 
L 590.370248 299.625113 
L 599.593388 299.415368 
L 608.816529 300.177077 
L 618.039669 300.175469 
L 627.26281 300.082809 
L 636.48595 300.080257 
L 645.709091 300.164742 
L 654.932231 300.192303 
L 664.155372 300.006713 
L 673.378512 300.03808 
L 682.601653 300.168754 
L 691.824793 300.295099 
L 701.047934 300.43388 
L 710.271074 300.625307 
L 719.494215 300.766824 
L 728.717355 300.88697 
L 737.940496 300.858263 
L 747.163636 300.838146 
" style="fill:none;stroke:#ff7f0e;stroke-linecap:square;stroke-width:2;"/>
   </g>
   <g id="patch_3">
    <path d="M 108 315 
L 108 43.2 
" style="fill:none;stroke:#808080;stroke-linecap:square;stroke-linejoin:miter;"/>
   </g>
   <g id="patch_4">
    <path d="M 108 315 
L 777.6 315 
" style="fill:none;stroke:#808080;stroke-linecap:square;stroke-linejoin:miter;"/>
   </g>
   <g id="legend_1">
    <g id="patch_5">
     <path d="M 784.6 227.3375 
L 847.91875 227.3375 
Q 849.91875 227.3375 849.91875 225.3375 
L 849.91875 50.2 
Q 849.91875 48.2 847.91875 48.2 
L 784.6 48.2 
Q 782.6 48.2 782.6 50.2 
L 782.6 225.3375 
Q 782.6 227.3375 784.6 227.3375 
z
" style="fill:#ffffff;opacity:0.8;stroke:#cccccc;stroke-linejoin:miter;"/>
    </g>
    <g id="line2d_28">
     <path d="M 786.6 56.298437 
L 806.6 56.298437 
" style="fill:none;stroke:#1f77b4;stroke-linecap:square;stroke-width:2;"/>
    </g>
    <g id="line2d_29"/>
    <g id="text_16">
     <!-- deg -->
     <defs>
      <path d="M 45.40625 46.390625 
L 45.40625 75.984375 
L 54.390625 75.984375 
L 54.390625 0 
L 45.40625 0 
L 45.40625 8.203125 
Q 42.578125 3.328125 38.25 0.953125 
Q 33.9375 -1.421875 27.875 -1.421875 
Q 17.96875 -1.421875 11.734375 6.484375 
Q 5.515625 14.40625 5.515625 27.296875 
Q 5.515625 40.1875 11.734375 48.09375 
Q 17.96875 56 27.875 56 
Q 33.9375 56 38.25 53.625 
Q 42.578125 51.265625 45.40625 46.390625 
z
M 14.796875 27.296875 
Q 14.796875 17.390625 18.875 11.75 
Q 22.953125 6.109375 30.078125 6.109375 
Q 37.203125 6.109375 41.296875 11.75 
Q 45.40625 17.390625 45.40625 27.296875 
Q 45.40625 37.203125 41.296875 42.84375 
Q 37.203125 48.484375 30.078125 48.484375 
Q 22.953125 48.484375 18.875 42.84375 
Q 14.796875 37.203125 14.796875 27.296875 
z
" id="DejaVuSans-100"/>
      <path d="M 56.203125 29.59375 
L 56.203125 25.203125 
L 14.890625 25.203125 
Q 15.484375 15.921875 20.484375 11.0625 
Q 25.484375 6.203125 34.421875 6.203125 
Q 39.59375 6.203125 44.453125 7.46875 
Q 49.3125 8.734375 54.109375 11.28125 
L 54.109375 2.78125 
Q 49.265625 0.734375 44.1875 -0.34375 
Q 39.109375 -1.421875 33.890625 -1.421875 
Q 20.796875 -1.421875 13.15625 6.1875 
Q 5.515625 13.8125 5.515625 26.8125 
Q 5.515625 40.234375 12.765625 48.109375 
Q 20.015625 56 32.328125 56 
Q 43.359375 56 49.78125 48.890625 
Q 56.203125 41.796875 56.203125 29.59375 
z
M 47.21875 32.234375 
Q 47.125 39.59375 43.09375 43.984375 
Q 39.0625 48.390625 32.421875 48.390625 
Q 24.90625 48.390625 20.390625 44.140625 
Q 15.875 39.890625 15.1875 32.171875 
z
" id="DejaVuSans-101"/>
      <path d="M 45.40625 27.984375 
Q 45.40625 37.75 41.375 43.109375 
Q 37.359375 48.484375 30.078125 48.484375 
Q 22.859375 48.484375 18.828125 43.109375 
Q 14.796875 37.75 14.796875 27.984375 
Q 14.796875 18.265625 18.828125 12.890625 
Q 22.859375 7.515625 30.078125 7.515625 
Q 37.359375 7.515625 41.375 12.890625 
Q 45.40625 18.265625 45.40625 27.984375 
z
M 54.390625 6.78125 
Q 54.390625 -7.171875 48.1875 -13.984375 
Q 42 -20.796875 29.203125 -20.796875 
Q 24.46875 -20.796875 20.265625 -20.09375 
Q 16.0625 -19.390625 12.109375 -17.921875 
L 12.109375 -9.1875 
Q 16.0625 -11.328125 19.921875 -12.34375 
Q 23.78125 -13.375 27.78125 -13.375 
Q 36.625 -13.375 41.015625 -8.765625 
Q 45.40625 -4.15625 45.40625 5.171875 
L 45.40625 9.625 
Q 42.625 4.78125 38.28125 2.390625 
Q 33.9375 0 27.875 0 
Q 17.828125 0 11.671875 7.65625 
Q 5.515625 15.328125 5.515625 27.984375 
Q 5.515625 40.671875 11.671875 48.328125 
Q 17.828125 56 27.875 56 
Q 33.9375 56 38.28125 53.609375 
Q 42.625 51.21875 45.40625 46.390625 
L 45.40625 54.6875 
L 54.390625 54.6875 
z
" id="DejaVuSans-103"/>
     </defs>
     <g transform="translate(814.6 59.798437)scale(0.1 -0.1)">
      <use xlink:href="#DejaVuSans-100"/>
      <use x="63.476562" xlink:href="#DejaVuSans-101"/>
      <use x="125" xlink:href="#DejaVuSans-103"/>
     </g>
    </g>
    <g id="line2d_30">
     <path d="M 786.6 70.976562 
L 806.6 70.976562 
" style="fill:none;stroke:#ff7f0e;stroke-linecap:square;stroke-width:2;"/>
    </g>
    <g id="line2d_31"/>
    <g id="text_17">
     <!-- dig -->
     <defs>
      <path d="M 9.421875 54.6875 
L 18.40625 54.6875 
L 18.40625 0 
L 9.421875 0 
z
M 9.421875 75.984375 
L 18.40625 75.984375 
L 18.40625 64.59375 
L 9.421875 64.59375 
z
" id="DejaVuSans-105"/>
     </defs>
     <g transform="translate(814.6 74.476562)scale(0.1 -0.1)">
      <use xlink:href="#DejaVuSans-100"/>
      <use x="63.476562" xlink:href="#DejaVuSans-105"/>
      <use x="91.259766" xlink:href="#DejaVuSans-103"/>
     </g>
    </g>
    <g id="line2d_32">
     <path d="M 786.6 85.654688 
L 806.6 85.654688 
" style="fill:none;stroke:#2ca02c;stroke-linecap:square;stroke-width:2;"/>
    </g>
    <g id="line2d_33"/>
    <g id="text_18">
     <!-- du -->
     <defs>
      <path d="M 8.5 21.578125 
L 8.5 54.6875 
L 17.484375 54.6875 
L 17.484375 21.921875 
Q 17.484375 14.15625 20.5 10.265625 
Q 23.53125 6.390625 29.59375 6.390625 
Q 36.859375 6.390625 41.078125 11.03125 
Q 45.3125 15.671875 45.3125 23.6875 
L 45.3125 54.6875 
L 54.296875 54.6875 
L 54.296875 0 
L 45.3125 0 
L 45.3125 8.40625 
Q 42.046875 3.421875 37.71875 1 
Q 33.40625 -1.421875 27.6875 -1.421875 
Q 18.265625 -1.421875 13.375 4.4375 
Q 8.5 10.296875 8.5 21.578125 
z
M 31.109375 56 
z
" id="DejaVuSans-117"/>
     </defs>
     <g transform="translate(814.6 89.154688)scale(0.1 -0.1)">
      <use xlink:href="#DejaVuSans-100"/>
      <use x="63.476562" xlink:href="#DejaVuSans-117"/>
     </g>
    </g>
    <g id="line2d_34">
     <path d="M 786.6 100.332812 
L 806.6 100.332812 
" style="fill:none;stroke:#d62728;stroke-linecap:square;stroke-width:2;"/>
    </g>
    <g id="line2d_35"/>
    <g id="text_19">
     <!-- ham -->
     <defs>
      <path d="M 54.890625 33.015625 
L 54.890625 0 
L 45.90625 0 
L 45.90625 32.71875 
Q 45.90625 40.484375 42.875 44.328125 
Q 39.84375 48.1875 33.796875 48.1875 
Q 26.515625 48.1875 22.3125 43.546875 
Q 18.109375 38.921875 18.109375 30.90625 
L 18.109375 0 
L 9.078125 0 
L 9.078125 75.984375 
L 18.109375 75.984375 
L 18.109375 46.1875 
Q 21.34375 51.125 25.703125 53.5625 
Q 30.078125 56 35.796875 56 
Q 45.21875 56 50.046875 50.171875 
Q 54.890625 44.34375 54.890625 33.015625 
z
" id="DejaVuSans-104"/>
      <path d="M 34.28125 27.484375 
Q 23.390625 27.484375 19.1875 25 
Q 14.984375 22.515625 14.984375 16.5 
Q 14.984375 11.71875 18.140625 8.90625 
Q 21.296875 6.109375 26.703125 6.109375 
Q 34.1875 6.109375 38.703125 11.40625 
Q 43.21875 16.703125 43.21875 25.484375 
L 43.21875 27.484375 
z
M 52.203125 31.203125 
L 52.203125 0 
L 43.21875 0 
L 43.21875 8.296875 
Q 40.140625 3.328125 35.546875 0.953125 
Q 30.953125 -1.421875 24.3125 -1.421875 
Q 15.921875 -1.421875 10.953125 3.296875 
Q 6 8.015625 6 15.921875 
Q 6 25.140625 12.171875 29.828125 
Q 18.359375 34.515625 30.609375 34.515625 
L 43.21875 34.515625 
L 43.21875 35.40625 
Q 43.21875 41.609375 39.140625 45 
Q 35.0625 48.390625 27.6875 48.390625 
Q 23 48.390625 18.546875 47.265625 
Q 14.109375 46.140625 10.015625 43.890625 
L 10.015625 52.203125 
Q 14.9375 54.109375 19.578125 55.046875 
Q 24.21875 56 28.609375 56 
Q 40.484375 56 46.34375 49.84375 
Q 52.203125 43.703125 52.203125 31.203125 
z
" id="DejaVuSans-97"/>
      <path d="M 52 44.1875 
Q 55.375 50.25 60.0625 53.125 
Q 64.75 56 71.09375 56 
Q 79.640625 56 84.28125 50.015625 
Q 88.921875 44.046875 88.921875 33.015625 
L 88.921875 0 
L 79.890625 0 
L 79.890625 32.71875 
Q 79.890625 40.578125 77.09375 44.375 
Q 74.3125 48.1875 68.609375 48.1875 
Q 61.625 48.1875 57.5625 43.546875 
Q 53.515625 38.921875 53.515625 30.90625 
L 53.515625 0 
L 44.484375 0 
L 44.484375 32.71875 
Q 44.484375 40.625 41.703125 44.40625 
Q 38.921875 48.1875 33.109375 48.1875 
Q 26.21875 48.1875 22.15625 43.53125 
Q 18.109375 38.875 18.109375 30.90625 
L 18.109375 0 
L 9.078125 0 
L 9.078125 54.6875 
L 18.109375 54.6875 
L 18.109375 46.1875 
Q 21.1875 51.21875 25.484375 53.609375 
Q 29.78125 56 35.6875 56 
Q 41.65625 56 45.828125 52.96875 
Q 50 49.953125 52 44.1875 
z
" id="DejaVuSans-109"/>
     </defs>
     <g transform="translate(814.6 103.832812)scale(0.1 -0.1)">
      <use xlink:href="#DejaVuSans-104"/>
      <use x="63.378906" xlink:href="#DejaVuSans-97"/>
      <use x="124.658203" xlink:href="#DejaVuSans-109"/>
     </g>
    </g>
    <g id="line2d_36">
     <path d="M 786.6 115.010938 
L 806.6 115.010938 
" style="fill:none;stroke:#9467bd;stroke-linecap:square;stroke-width:2;"/>
    </g>
    <g id="line2d_37"/>
    <g id="text_20">
     <!-- han -->
     <defs>
      <path d="M 54.890625 33.015625 
L 54.890625 0 
L 45.90625 0 
L 45.90625 32.71875 
Q 45.90625 40.484375 42.875 44.328125 
Q 39.84375 48.1875 33.796875 48.1875 
Q 26.515625 48.1875 22.3125 43.546875 
Q 18.109375 38.921875 18.109375 30.90625 
L 18.109375 0 
L 9.078125 0 
L 9.078125 54.6875 
L 18.109375 54.6875 
L 18.109375 46.1875 
Q 21.34375 51.125 25.703125 53.5625 
Q 30.078125 56 35.796875 56 
Q 45.21875 56 50.046875 50.171875 
Q 54.890625 44.34375 54.890625 33.015625 
z
" id="DejaVuSans-110"/>
     </defs>
     <g transform="translate(814.6 118.510938)scale(0.1 -0.1)">
      <use xlink:href="#DejaVuSans-104"/>
      <use x="63.378906" xlink:href="#DejaVuSans-97"/>
      <use x="124.658203" xlink:href="#DejaVuSans-110"/>
     </g>
    </g>
    <g id="line2d_38">
     <path d="M 786.6 129.689062 
L 806.6 129.689062 
" style="fill:none;stroke:#8c564b;stroke-linecap:square;stroke-width:2;"/>
    </g>
    <g id="line2d_39"/>
    <g id="text_21">
     <!-- henne -->
     <g transform="translate(814.6 133.189062)scale(0.1 -0.1)">
      <use xlink:href="#DejaVuSans-104"/>
      <use x="63.378906" xlink:href="#DejaVuSans-101"/>
      <use x="124.902344" xlink:href="#DejaVuSans-110"/>
      <use x="188.28125" xlink:href="#DejaVuSans-110"/>
      <use x="251.660156" xlink:href="#DejaVuSans-101"/>
     </g>
    </g>
    <g id="line2d_40">
     <path d="M 786.6 144.367188 
L 806.6 144.367188 
" style="fill:none;stroke:#e377c2;stroke-linecap:square;stroke-width:2;"/>
    </g>
    <g id="line2d_41"/>
    <g id="text_22">
     <!-- hun -->
     <g transform="translate(814.6 147.867188)scale(0.1 -0.1)">
      <use xlink:href="#DejaVuSans-104"/>
      <use x="63.378906" xlink:href="#DejaVuSans-117"/>
      <use x="126.757812" xlink:href="#DejaVuSans-110"/>
     </g>
    </g>
    <g id="line2d_42">
     <path d="M 786.6 159.045312 
L 806.6 159.045312 
" style="fill:none;stroke:#7f7f7f;stroke-linecap:square;stroke-width:2;"/>
    </g>
    <g id="line2d_43"/>
    <g id="text_23">
     <!-- jeg -->
     <defs>
      <path d="M 9.421875 54.6875 
L 18.40625 54.6875 
L 18.40625 -0.984375 
Q 18.40625 -11.421875 14.421875 -16.109375 
Q 10.453125 -20.796875 1.609375 -20.796875 
L -1.8125 -20.796875 
L -1.8125 -13.1875 
L 0.59375 -13.1875 
Q 5.71875 -13.1875 7.5625 -10.8125 
Q 9.421875 -8.453125 9.421875 -0.984375 
z
M 9.421875 75.984375 
L 18.40625 75.984375 
L 18.40625 64.59375 
L 9.421875 64.59375 
z
" id="DejaVuSans-106"/>
     </defs>
     <g transform="translate(814.6 162.545312)scale(0.1 -0.1)">
      <use xlink:href="#DejaVuSans-106"/>
      <use x="27.783203" xlink:href="#DejaVuSans-101"/>
      <use x="89.306641" xlink:href="#DejaVuSans-103"/>
     </g>
    </g>
    <g id="line2d_44">
     <path d="M 786.6 173.723437 
L 806.6 173.723437 
" style="fill:none;stroke:#bcbd22;stroke-linecap:square;stroke-width:2;"/>
    </g>
    <g id="line2d_45"/>
    <g id="text_24">
     <!-- meg -->
     <g transform="translate(814.6 177.223437)scale(0.1 -0.1)">
      <use xlink:href="#DejaVuSans-109"/>
      <use x="97.412109" xlink:href="#DejaVuSans-101"/>
      <use x="158.935547" xlink:href="#DejaVuSans-103"/>
     </g>
    </g>
    <g id="line2d_46">
     <path d="M 786.6 188.401562 
L 806.6 188.401562 
" style="fill:none;stroke:#17becf;stroke-linecap:square;stroke-width:2;"/>
    </g>
    <g id="line2d_47"/>
    <g id="text_25">
     <!-- mig -->
     <g transform="translate(814.6 191.901562)scale(0.1 -0.1)">
      <use xlink:href="#DejaVuSans-109"/>
      <use x="97.412109" xlink:href="#DejaVuSans-105"/>
      <use x="125.195312" xlink:href="#DejaVuSans-103"/>
     </g>
    </g>
    <g id="line2d_48">
     <path d="M 786.6 203.079687 
L 806.6 203.079687 
" style="fill:none;stroke:#1f77b4;stroke-linecap:square;stroke-width:2;"/>
    </g>
    <g id="line2d_49"/>
    <g id="text_26">
     <!-- seg -->
     <defs>
      <path d="M 44.28125 53.078125 
L 44.28125 44.578125 
Q 40.484375 46.53125 36.375 47.5 
Q 32.28125 48.484375 27.875 48.484375 
Q 21.1875 48.484375 17.84375 46.4375 
Q 14.5 44.390625 14.5 40.28125 
Q 14.5 37.15625 16.890625 35.375 
Q 19.28125 33.59375 26.515625 31.984375 
L 29.59375 31.296875 
Q 39.15625 29.25 43.1875 25.515625 
Q 47.21875 21.78125 47.21875 15.09375 
Q 47.21875 7.46875 41.1875 3.015625 
Q 35.15625 -1.421875 24.609375 -1.421875 
Q 20.21875 -1.421875 15.453125 -0.5625 
Q 10.6875 0.296875 5.421875 2 
L 5.421875 11.28125 
Q 10.40625 8.6875 15.234375 7.390625 
Q 20.0625 6.109375 24.8125 6.109375 
Q 31.15625 6.109375 34.5625 8.28125 
Q 37.984375 10.453125 37.984375 14.40625 
Q 37.984375 18.0625 35.515625 20.015625 
Q 33.0625 21.96875 24.703125 23.78125 
L 21.578125 24.515625 
Q 13.234375 26.265625 9.515625 29.90625 
Q 5.8125 33.546875 5.8125 39.890625 
Q 5.8125 47.609375 11.28125 51.796875 
Q 16.75 56 26.8125 56 
Q 31.78125 56 36.171875 55.265625 
Q 40.578125 54.546875 44.28125 53.078125 
z
" id="DejaVuSans-115"/>
     </defs>
     <g transform="translate(814.6 206.579687)scale(0.1 -0.1)">
      <use xlink:href="#DejaVuSans-115"/>
      <use x="52.099609" xlink:href="#DejaVuSans-101"/>
      <use x="113.623047" xlink:href="#DejaVuSans-103"/>
     </g>
    </g>
    <g id="line2d_50">
     <path d="M 786.6 217.757812 
L 806.6 217.757812 
" style="fill:none;stroke:#ff7f0e;stroke-linecap:square;stroke-width:2;"/>
    </g>
    <g id="line2d_51"/>
    <g id="text_27">
     <!-- sig -->
     <g transform="translate(814.6 221.257812)scale(0.1 -0.1)">
      <use xlink:href="#DejaVuSans-115"/>
      <use x="52.099609" xlink:href="#DejaVuSans-105"/>
      <use x="79.882812" xlink:href="#DejaVuSans-103"/>
     </g>
    </g>
   </g>
  </g>
 </g>
 <defs>
  <clipPath id="p1d323779a6">
   <rect height="271.8" width="669.6" x="108" y="43.2"/>
  </clipPath>
 </defs>
</svg>
