<?xml version="1.0" encoding="utf-8" standalone="no"?>
<!DOCTYPE svg PUBLIC "-//W3C//DTD SVG 1.1//EN"
  "http://www.w3.org/Graphics/SVG/1.1/DTD/svg11.dtd">
<!-- Created with matplotlib (https://matplotlib.org/) -->
<svg height="360pt" version="1.1" viewBox="0 0 864 360" width="864pt" xmlns="http://www.w3.org/2000/svg" xmlns:xlink="http://www.w3.org/1999/xlink">
 <defs>
  <style type="text/css">
*{stroke-linecap:butt;stroke-linejoin:round;}
  </style>
 </defs>
 <g id="figure_1">
  <g id="patch_1">
   <path d="M 0 360 
L 864 360 
L 864 0 
L 0 0 
z
" style="fill:#ffffff;"/>
  </g>
  <g id="axes_1">
   <g id="patch_2">
    <path d="M 108 315 
L 777.6 315 
L 777.6 43.2 
L 108 43.2 
z
" style="fill:#ffffff;"/>
   </g>
   <g id="matplotlib.axis_1">
    <g id="xtick_1">
     <g id="line2d_1">
      <defs>
       <path d="M 0 0 
L 0 3.5 
" id="m8fc758e7b3" style="stroke:#000000;stroke-width:0.8;"/>
      </defs>
      <g>
       <use style="stroke:#000000;stroke-width:0.8;" x="138.436364" xlink:href="#m8fc758e7b3" y="315"/>
      </g>
     </g>
     <g id="text_1">
      <!-- 1900 -->
      <defs>
       <path d="M 12.40625 8.296875 
L 28.515625 8.296875 
L 28.515625 63.921875 
L 10.984375 60.40625 
L 10.984375 69.390625 
L 28.421875 72.90625 
L 38.28125 72.90625 
L 38.28125 8.296875 
L 54.390625 8.296875 
L 54.390625 0 
L 12.40625 0 
z
" id="DejaVuSans-49"/>
       <path d="M 10.984375 1.515625 
L 10.984375 10.5 
Q 14.703125 8.734375 18.5 7.8125 
Q 22.3125 6.890625 25.984375 6.890625 
Q 35.75 6.890625 40.890625 13.453125 
Q 46.046875 20.015625 46.78125 33.40625 
Q 43.953125 29.203125 39.59375 26.953125 
Q 35.25 24.703125 29.984375 24.703125 
Q 19.046875 24.703125 12.671875 31.3125 
Q 6.296875 37.9375 6.296875 49.421875 
Q 6.296875 60.640625 12.9375 67.421875 
Q 19.578125 74.21875 30.609375 74.21875 
Q 43.265625 74.21875 49.921875 64.515625 
Q 56.59375 54.828125 56.59375 36.375 
Q 56.59375 19.140625 48.40625 8.859375 
Q 40.234375 -1.421875 26.421875 -1.421875 
Q 22.703125 -1.421875 18.890625 -0.6875 
Q 15.09375 0.046875 10.984375 1.515625 
z
M 30.609375 32.421875 
Q 37.25 32.421875 41.125 36.953125 
Q 45.015625 41.5 45.015625 49.421875 
Q 45.015625 57.28125 41.125 61.84375 
Q 37.25 66.40625 30.609375 66.40625 
Q 23.96875 66.40625 20.09375 61.84375 
Q 16.21875 57.28125 16.21875 49.421875 
Q 16.21875 41.5 20.09375 36.953125 
Q 23.96875 32.421875 30.609375 32.421875 
z
" id="DejaVuSans-57"/>
       <path d="M 31.78125 66.40625 
Q 24.171875 66.40625 20.328125 58.90625 
Q 16.5 51.421875 16.5 36.375 
Q 16.5 21.390625 20.328125 13.890625 
Q 24.171875 6.390625 31.78125 6.390625 
Q 39.453125 6.390625 43.28125 13.890625 
Q 47.125 21.390625 47.125 36.375 
Q 47.125 51.421875 43.28125 58.90625 
Q 39.453125 66.40625 31.78125 66.40625 
z
M 31.78125 74.21875 
Q 44.046875 74.21875 50.515625 64.515625 
Q 56.984375 54.828125 56.984375 36.375 
Q 56.984375 17.96875 50.515625 8.265625 
Q 44.046875 -1.421875 31.78125 -1.421875 
Q 19.53125 -1.421875 13.0625 8.265625 
Q 6.59375 17.96875 6.59375 36.375 
Q 6.59375 54.828125 13.0625 64.515625 
Q 19.53125 74.21875 31.78125 74.21875 
z
" id="DejaVuSans-48"/>
      </defs>
      <g transform="translate(125.711364 329.598437)scale(0.1 -0.1)">
       <use xlink:href="#DejaVuSans-49"/>
       <use x="63.623047" xlink:href="#DejaVuSans-57"/>
       <use x="127.246094" xlink:href="#DejaVuSans-48"/>
       <use x="190.869141" xlink:href="#DejaVuSans-48"/>
      </g>
     </g>
    </g>
    <g id="xtick_2">
     <g id="line2d_2">
      <g>
       <use style="stroke:#000000;stroke-width:0.8;" x="225.397403" xlink:href="#m8fc758e7b3" y="315"/>
      </g>
     </g>
     <g id="text_2">
      <!-- 1910 -->
      <g transform="translate(212.672403 329.598437)scale(0.1 -0.1)">
       <use xlink:href="#DejaVuSans-49"/>
       <use x="63.623047" xlink:href="#DejaVuSans-57"/>
       <use x="127.246094" xlink:href="#DejaVuSans-49"/>
       <use x="190.869141" xlink:href="#DejaVuSans-48"/>
      </g>
     </g>
    </g>
    <g id="xtick_3">
     <g id="line2d_3">
      <g>
       <use style="stroke:#000000;stroke-width:0.8;" x="312.358442" xlink:href="#m8fc758e7b3" y="315"/>
      </g>
     </g>
     <g id="text_3">
      <!-- 1920 -->
      <defs>
       <path d="M 19.1875 8.296875 
L 53.609375 8.296875 
L 53.609375 0 
L 7.328125 0 
L 7.328125 8.296875 
Q 12.9375 14.109375 22.625 23.890625 
Q 32.328125 33.6875 34.8125 36.53125 
Q 39.546875 41.84375 41.421875 45.53125 
Q 43.3125 49.21875 43.3125 52.78125 
Q 43.3125 58.59375 39.234375 62.25 
Q 35.15625 65.921875 28.609375 65.921875 
Q 23.96875 65.921875 18.8125 64.3125 
Q 13.671875 62.703125 7.8125 59.421875 
L 7.8125 69.390625 
Q 13.765625 71.78125 18.9375 73 
Q 24.125 74.21875 28.421875 74.21875 
Q 39.75 74.21875 46.484375 68.546875 
Q 53.21875 62.890625 53.21875 53.421875 
Q 53.21875 48.921875 51.53125 44.890625 
Q 49.859375 40.875 45.40625 35.40625 
Q 44.1875 33.984375 37.640625 27.21875 
Q 31.109375 20.453125 19.1875 8.296875 
z
" id="DejaVuSans-50"/>
      </defs>
      <g transform="translate(299.633442 329.598437)scale(0.1 -0.1)">
       <use xlink:href="#DejaVuSans-49"/>
       <use x="63.623047" xlink:href="#DejaVuSans-57"/>
       <use x="127.246094" xlink:href="#DejaVuSans-50"/>
       <use x="190.869141" xlink:href="#DejaVuSans-48"/>
      </g>
     </g>
    </g>
    <g id="xtick_4">
     <g id="line2d_4">
      <g>
       <use style="stroke:#000000;stroke-width:0.8;" x="399.319481" xlink:href="#m8fc758e7b3" y="315"/>
      </g>
     </g>
     <g id="text_4">
      <!-- 1930 -->
      <defs>
       <path d="M 40.578125 39.3125 
Q 47.65625 37.796875 51.625 33 
Q 55.609375 28.21875 55.609375 21.1875 
Q 55.609375 10.40625 48.1875 4.484375 
Q 40.765625 -1.421875 27.09375 -1.421875 
Q 22.515625 -1.421875 17.65625 -0.515625 
Q 12.796875 0.390625 7.625 2.203125 
L 7.625 11.71875 
Q 11.71875 9.328125 16.59375 8.109375 
Q 21.484375 6.890625 26.8125 6.890625 
Q 36.078125 6.890625 40.9375 10.546875 
Q 45.796875 14.203125 45.796875 21.1875 
Q 45.796875 27.640625 41.28125 31.265625 
Q 36.765625 34.90625 28.71875 34.90625 
L 20.21875 34.90625 
L 20.21875 43.015625 
L 29.109375 43.015625 
Q 36.375 43.015625 40.234375 45.921875 
Q 44.09375 48.828125 44.09375 54.296875 
Q 44.09375 59.90625 40.109375 62.90625 
Q 36.140625 65.921875 28.71875 65.921875 
Q 24.65625 65.921875 20.015625 65.03125 
Q 15.375 64.15625 9.8125 62.3125 
L 9.8125 71.09375 
Q 15.4375 72.65625 20.34375 73.4375 
Q 25.25 74.21875 29.59375 74.21875 
Q 40.828125 74.21875 47.359375 69.109375 
Q 53.90625 64.015625 53.90625 55.328125 
Q 53.90625 49.265625 50.4375 45.09375 
Q 46.96875 40.921875 40.578125 39.3125 
z
" id="DejaVuSans-51"/>
      </defs>
      <g transform="translate(386.594481 329.598437)scale(0.1 -0.1)">
       <use xlink:href="#DejaVuSans-49"/>
       <use x="63.623047" xlink:href="#DejaVuSans-57"/>
       <use x="127.246094" xlink:href="#DejaVuSans-51"/>
       <use x="190.869141" xlink:href="#DejaVuSans-48"/>
      </g>
     </g>
    </g>
    <g id="xtick_5">
     <g id="line2d_5">
      <g>
       <use style="stroke:#000000;stroke-width:0.8;" x="486.280519" xlink:href="#m8fc758e7b3" y="315"/>
      </g>
     </g>
     <g id="text_5">
      <!-- 1940 -->
      <defs>
       <path d="M 37.796875 64.3125 
L 12.890625 25.390625 
L 37.796875 25.390625 
z
M 35.203125 72.90625 
L 47.609375 72.90625 
L 47.609375 25.390625 
L 58.015625 25.390625 
L 58.015625 17.1875 
L 47.609375 17.1875 
L 47.609375 0 
L 37.796875 0 
L 37.796875 17.1875 
L 4.890625 17.1875 
L 4.890625 26.703125 
z
" id="DejaVuSans-52"/>
      </defs>
      <g transform="translate(473.555519 329.598437)scale(0.1 -0.1)">
       <use xlink:href="#DejaVuSans-49"/>
       <use x="63.623047" xlink:href="#DejaVuSans-57"/>
       <use x="127.246094" xlink:href="#DejaVuSans-52"/>
       <use x="190.869141" xlink:href="#DejaVuSans-48"/>
      </g>
     </g>
    </g>
    <g id="xtick_6">
     <g id="line2d_6">
      <g>
       <use style="stroke:#000000;stroke-width:0.8;" x="573.241558" xlink:href="#m8fc758e7b3" y="315"/>
      </g>
     </g>
     <g id="text_6">
      <!-- 1950 -->
      <defs>
       <path d="M 10.796875 72.90625 
L 49.515625 72.90625 
L 49.515625 64.59375 
L 19.828125 64.59375 
L 19.828125 46.734375 
Q 21.96875 47.46875 24.109375 47.828125 
Q 26.265625 48.1875 28.421875 48.1875 
Q 40.625 48.1875 47.75 41.5 
Q 54.890625 34.8125 54.890625 23.390625 
Q 54.890625 11.625 47.5625 5.09375 
Q 40.234375 -1.421875 26.90625 -1.421875 
Q 22.3125 -1.421875 17.546875 -0.640625 
Q 12.796875 0.140625 7.71875 1.703125 
L 7.71875 11.625 
Q 12.109375 9.234375 16.796875 8.0625 
Q 21.484375 6.890625 26.703125 6.890625 
Q 35.15625 6.890625 40.078125 11.328125 
Q 45.015625 15.765625 45.015625 23.390625 
Q 45.015625 31 40.078125 35.4375 
Q 35.15625 39.890625 26.703125 39.890625 
Q 22.75 39.890625 18.8125 39.015625 
Q 14.890625 38.140625 10.796875 36.28125 
z
" id="DejaVuSans-53"/>
      </defs>
      <g transform="translate(560.516558 329.598437)scale(0.1 -0.1)">
       <use xlink:href="#DejaVuSans-49"/>
       <use x="63.623047" xlink:href="#DejaVuSans-57"/>
       <use x="127.246094" xlink:href="#DejaVuSans-53"/>
       <use x="190.869141" xlink:href="#DejaVuSans-48"/>
      </g>
     </g>
    </g>
    <g id="xtick_7">
     <g id="line2d_7">
      <g>
       <use style="stroke:#000000;stroke-width:0.8;" x="660.202597" xlink:href="#m8fc758e7b3" y="315"/>
      </g>
     </g>
     <g id="text_7">
      <!-- 1960 -->
      <defs>
       <path d="M 33.015625 40.375 
Q 26.375 40.375 22.484375 35.828125 
Q 18.609375 31.296875 18.609375 23.390625 
Q 18.609375 15.53125 22.484375 10.953125 
Q 26.375 6.390625 33.015625 6.390625 
Q 39.65625 6.390625 43.53125 10.953125 
Q 47.40625 15.53125 47.40625 23.390625 
Q 47.40625 31.296875 43.53125 35.828125 
Q 39.65625 40.375 33.015625 40.375 
z
M 52.59375 71.296875 
L 52.59375 62.3125 
Q 48.875 64.0625 45.09375 64.984375 
Q 41.3125 65.921875 37.59375 65.921875 
Q 27.828125 65.921875 22.671875 59.328125 
Q 17.53125 52.734375 16.796875 39.40625 
Q 19.671875 43.65625 24.015625 45.921875 
Q 28.375 48.1875 33.59375 48.1875 
Q 44.578125 48.1875 50.953125 41.515625 
Q 57.328125 34.859375 57.328125 23.390625 
Q 57.328125 12.15625 50.6875 5.359375 
Q 44.046875 -1.421875 33.015625 -1.421875 
Q 20.359375 -1.421875 13.671875 8.265625 
Q 6.984375 17.96875 6.984375 36.375 
Q 6.984375 53.65625 15.1875 63.9375 
Q 23.390625 74.21875 37.203125 74.21875 
Q 40.921875 74.21875 44.703125 73.484375 
Q 48.484375 72.75 52.59375 71.296875 
z
" id="DejaVuSans-54"/>
      </defs>
      <g transform="translate(647.477597 329.598437)scale(0.1 -0.1)">
       <use xlink:href="#DejaVuSans-49"/>
       <use x="63.623047" xlink:href="#DejaVuSans-57"/>
       <use x="127.246094" xlink:href="#DejaVuSans-54"/>
       <use x="190.869141" xlink:href="#DejaVuSans-48"/>
      </g>
     </g>
    </g>
    <g id="xtick_8">
     <g id="line2d_8">
      <g>
       <use style="stroke:#000000;stroke-width:0.8;" x="747.163636" xlink:href="#m8fc758e7b3" y="315"/>
      </g>
     </g>
     <g id="text_8">
      <!-- 1970 -->
      <defs>
       <path d="M 8.203125 72.90625 
L 55.078125 72.90625 
L 55.078125 68.703125 
L 28.609375 0 
L 18.3125 0 
L 43.21875 64.59375 
L 8.203125 64.59375 
z
" id="DejaVuSans-55"/>
      </defs>
      <g transform="translate(734.438636 329.598437)scale(0.1 -0.1)">
       <use xlink:href="#DejaVuSans-49"/>
       <use x="63.623047" xlink:href="#DejaVuSans-57"/>
       <use x="127.246094" xlink:href="#DejaVuSans-55"/>
       <use x="190.869141" xlink:href="#DejaVuSans-48"/>
      </g>
     </g>
    </g>
   </g>
   <g id="matplotlib.axis_2">
    <g id="ytick_1">
     <g id="line2d_9">
      <defs>
       <path d="M 0 0 
L -3.5 0 
" id="m984504c024" style="stroke:#000000;stroke-width:0.8;"/>
      </defs>
      <g>
       <use style="stroke:#000000;stroke-width:0.8;" x="108" xlink:href="#m984504c024" y="303.902716"/>
      </g>
     </g>
     <g id="text_9">
      <!-- 0.0 -->
      <defs>
       <path d="M 10.6875 12.40625 
L 21 12.40625 
L 21 0 
L 10.6875 0 
z
" id="DejaVuSans-46"/>
      </defs>
      <g transform="translate(85.096875 307.701934)scale(0.1 -0.1)">
       <use xlink:href="#DejaVuSans-48"/>
       <use x="63.623047" xlink:href="#DejaVuSans-46"/>
       <use x="95.410156" xlink:href="#DejaVuSans-48"/>
      </g>
     </g>
    </g>
    <g id="ytick_2">
     <g id="line2d_10">
      <g>
       <use style="stroke:#000000;stroke-width:0.8;" x="108" xlink:href="#m984504c024" y="245.025923"/>
      </g>
     </g>
     <g id="text_10">
      <!-- 0.1 -->
      <g transform="translate(85.096875 248.825142)scale(0.1 -0.1)">
       <use xlink:href="#DejaVuSans-48"/>
       <use x="63.623047" xlink:href="#DejaVuSans-46"/>
       <use x="95.410156" xlink:href="#DejaVuSans-49"/>
      </g>
     </g>
    </g>
    <g id="ytick_3">
     <g id="line2d_11">
      <g>
       <use style="stroke:#000000;stroke-width:0.8;" x="108" xlink:href="#m984504c024" y="186.149131"/>
      </g>
     </g>
     <g id="text_11">
      <!-- 0.2 -->
      <g transform="translate(85.096875 189.94835)scale(0.1 -0.1)">
       <use xlink:href="#DejaVuSans-48"/>
       <use x="63.623047" xlink:href="#DejaVuSans-46"/>
       <use x="95.410156" xlink:href="#DejaVuSans-50"/>
      </g>
     </g>
    </g>
    <g id="ytick_4">
     <g id="line2d_12">
      <g>
       <use style="stroke:#000000;stroke-width:0.8;" x="108" xlink:href="#m984504c024" y="127.272339"/>
      </g>
     </g>
     <g id="text_12">
      <!-- 0.3 -->
      <g transform="translate(85.096875 131.071558)scale(0.1 -0.1)">
       <use xlink:href="#DejaVuSans-48"/>
       <use x="63.623047" xlink:href="#DejaVuSans-46"/>
       <use x="95.410156" xlink:href="#DejaVuSans-51"/>
      </g>
     </g>
    </g>
    <g id="ytick_5">
     <g id="line2d_13">
      <g>
       <use style="stroke:#000000;stroke-width:0.8;" x="108" xlink:href="#m984504c024" y="68.395547"/>
      </g>
     </g>
     <g id="text_13">
      <!-- 0.4 -->
      <g transform="translate(85.096875 72.194766)scale(0.1 -0.1)">
       <use xlink:href="#DejaVuSans-48"/>
       <use x="63.623047" xlink:href="#DejaVuSans-46"/>
       <use x="95.410156" xlink:href="#DejaVuSans-52"/>
      </g>
     </g>
    </g>
   </g>
   <g id="line2d_14">
    <path clip-path="url(#p31bf2740c1)" d="M 138.436364 299.093595 
L 147.132468 300.942183 
L 155.828571 299.505556 
L 164.524675 299.975673 
L 173.220779 297.981211 
L 181.916883 298.174632 
L 190.612987 300.883655 
L 199.309091 296.455854 
L 208.005195 294.80928 
L 216.701299 296.434366 
L 225.397403 299.471398 
L 234.093506 298.226448 
L 242.78961 298.310076 
L 251.485714 296.943165 
L 260.181818 300.160054 
L 268.877922 296.781111 
L 277.574026 299.423606 
L 286.27013 298.375531 
L 294.966234 299.089761 
L 303.662338 299.522164 
L 312.358442 296.65577 
L 321.054545 292.286723 
L 329.750649 295.12391 
L 338.446753 296.313681 
L 347.142857 296.779209 
L 355.838961 296.068043 
L 364.535065 296.992952 
L 373.231169 297.101898 
L 381.927273 296.137627 
L 390.623377 296.427111 
L 399.319481 295.905476 
L 408.015584 295.756612 
L 416.711688 297.064983 
L 425.407792 296.291971 
L 434.103896 297.952693 
L 442.8 299.630857 
L 451.496104 300.01258 
L 460.192208 299.467849 
L 468.888312 296.889441 
L 477.584416 283.670467 
L 486.280519 281.335287 
L 494.976623 283.635003 
L 503.672727 272.443064 
L 512.368831 271.245215 
L 521.064935 274.10154 
L 529.761039 263.859091 
L 538.457143 261.025044 
L 547.153247 255.631068 
L 555.849351 251.676827 
L 564.545455 257.899857 
L 573.241558 256.661691 
L 581.937662 258.613778 
L 590.633766 250.778198 
L 599.32987 254.342098 
L 608.025974 251.973158 
L 616.722078 253.388163 
L 625.418182 251.470304 
L 634.114286 247.394075 
L 642.81039 247.499818 
L 651.506494 249.037452 
L 660.202597 240.798235 
L 668.898701 242.807914 
L 677.594805 244.304782 
L 686.290909 248.759865 
L 694.987013 245.320421 
L 703.683117 243.469334 
L 712.379221 248.410654 
L 721.075325 248.712454 
L 729.771429 245.344036 
L 738.467532 247.578866 
L 747.163636 249.656308 
" style="fill:none;stroke:#1f77b4;stroke-linecap:square;stroke-width:2;"/>
   </g>
   <g id="line2d_15">
    <path clip-path="url(#p31bf2740c1)" d="M 138.436364 226.02235 
L 147.132468 228.031635 
L 155.828571 231.739785 
L 164.524675 222.970275 
L 173.220779 223.11717 
L 181.916883 218.457655 
L 190.612987 225.382321 
L 199.309091 213.317222 
L 208.005195 226.255195 
L 216.701299 226.066203 
L 225.397403 214.258201 
L 234.093506 220.991873 
L 242.78961 226.173587 
L 251.485714 219.055155 
L 260.181818 220.383311 
L 268.877922 223.092676 
L 277.574026 219.874563 
L 286.27013 226.180102 
L 294.966234 236.604834 
L 303.662338 233.469171 
L 312.358442 223.181276 
L 321.054545 228.999358 
L 329.750649 229.263725 
L 338.446753 227.042343 
L 347.142857 230.344266 
L 355.838961 230.259338 
L 364.535065 226.111661 
L 373.231169 226.469807 
L 381.927273 231.243825 
L 390.623377 235.247612 
L 399.319481 233.220589 
L 408.015584 234.263542 
L 416.711688 236.205023 
L 425.407792 232.454382 
L 434.103896 231.509313 
L 442.8 230.88152 
L 451.496104 233.170431 
L 460.192208 234.854332 
L 468.888312 231.694786 
L 477.584416 221.769765 
L 486.280519 217.903324 
L 494.976623 224.004424 
L 503.672727 206.435375 
L 512.368831 211.16261 
L 521.064935 211.057632 
L 529.761039 210.245701 
L 538.457143 208.696597 
L 547.153247 207.392025 
L 555.849351 208.147484 
L 564.545455 214.954522 
L 573.241558 211.488519 
L 581.937662 210.015501 
L 590.633766 211.538152 
L 599.32987 210.998057 
L 608.025974 211.479402 
L 616.722078 207.444764 
L 625.418182 200.999312 
L 634.114286 208.143945 
L 642.81039 216.427865 
L 651.506494 212.524093 
L 660.202597 210.671934 
L 668.898701 210.602617 
L 677.594805 215.481185 
L 686.290909 211.208582 
L 694.987013 216.404866 
L 703.683117 211.14978 
L 712.379221 208.378087 
L 721.075325 210.740529 
L 729.771429 208.270568 
L 738.467532 204.926284 
L 747.163636 208.872362 
" style="fill:none;stroke:#ff7f0e;stroke-linecap:square;stroke-width:2;"/>
   </g>
   <g id="line2d_16">
    <path clip-path="url(#p31bf2740c1)" d="M 138.436364 301.576413 
L 147.132468 302.314103 
L 155.828571 302.195192 
L 164.524675 302.568266 
L 173.220779 302.645455 
L 181.916883 301.754494 
L 190.612987 302.424189 
L 199.309091 302.391132 
L 208.005195 301.336746 
L 216.701299 300.748256 
L 225.397403 301.165563 
L 234.093506 300.170622 
L 242.78961 300.554474 
L 251.485714 300.020462 
L 260.181818 300.605118 
L 268.877922 299.786291 
L 277.574026 298.585655 
L 286.27013 298.876815 
L 294.966234 298.740648 
L 303.662338 297.018825 
L 312.358442 298.129816 
L 321.054545 298.204405 
L 329.750649 297.799426 
L 338.446753 296.61883 
L 347.142857 297.259733 
L 355.838961 295.881392 
L 364.535065 296.888848 
L 373.231169 297.094613 
L 381.927273 295.444904 
L 390.623377 293.19055 
L 399.319481 293.409175 
L 408.015584 293.818579 
L 416.711688 294.596848 
L 425.407792 293.058316 
L 434.103896 294.656328 
L 442.8 293.930062 
L 451.496104 294.250036 
L 460.192208 294.00999 
L 468.888312 291.658674 
L 477.584416 291.704717 
L 486.280519 290.770724 
L 494.976623 291.484407 
L 503.672727 289.112834 
L 512.368831 290.302247 
L 521.064935 285.012631 
L 529.761039 284.077277 
L 538.457143 282.951205 
L 547.153247 283.559829 
L 555.849351 284.691757 
L 564.545455 286.825735 
L 573.241558 284.398466 
L 581.937662 285.465588 
L 590.633766 284.645583 
L 599.32987 286.24211 
L 608.025974 284.002551 
L 616.722078 286.373538 
L 625.418182 283.139323 
L 634.114286 283.859009 
L 642.81039 282.612003 
L 651.506494 282.694592 
L 660.202597 282.784997 
L 668.898701 281.4278 
L 677.594805 283.002497 
L 686.290909 282.679544 
L 694.987013 281.616447 
L 703.683117 282.342363 
L 712.379221 283.087646 
L 721.075325 283.265726 
L 729.771429 281.588314 
L 738.467532 284.193883 
L 747.163636 282.536688 
" style="fill:none;stroke:#2ca02c;stroke-linecap:square;stroke-width:2;"/>
   </g>
   <g id="line2d_17">
    <path clip-path="url(#p31bf2740c1)" d="M 138.436364 257.043135 
L 147.132468 260.349063 
L 155.828571 259.87267 
L 164.524675 278.134988 
L 173.220779 276.764114 
L 181.916883 270.037796 
L 190.612987 263.429933 
L 199.309091 274.058197 
L 208.005195 277.739648 
L 216.701299 278.493557 
L 225.397403 259.745432 
L 234.093506 273.180349 
L 242.78961 271.650194 
L 251.485714 270.269478 
L 260.181818 260.663357 
L 268.877922 265.888266 
L 277.574026 270.477637 
L 286.27013 267.098765 
L 294.966234 264.918415 
L 303.662338 267.948425 
L 312.358442 267.269546 
L 321.054545 271.443747 
L 329.750649 265.684588 
L 338.446753 273.931115 
L 347.142857 273.620783 
L 355.838961 264.279534 
L 364.535065 273.370945 
L 373.231169 274.314728 
L 381.927273 275.476904 
L 390.623377 271.821163 
L 399.319481 267.803685 
L 408.015584 275.496809 
L 416.711688 271.050725 
L 425.407792 274.927401 
L 434.103896 271.912285 
L 442.8 272.711171 
L 451.496104 273.547359 
L 460.192208 272.15905 
L 468.888312 277.863306 
L 477.584416 283.057561 
L 486.280519 283.63635 
L 494.976623 279.031658 
L 503.672727 288.326504 
L 512.368831 291.121068 
L 521.064935 288.295654 
L 529.761039 294.298703 
L 538.457143 297.502234 
L 547.153247 299.21928 
L 555.849351 298.99106 
L 564.545455 295.142236 
L 573.241558 296.33936 
L 581.937662 299.168917 
L 590.633766 299.532262 
L 599.32987 300.250379 
L 608.025974 300.922534 
L 616.722078 296.200418 
L 625.418182 299.238411 
L 634.114286 299.221976 
L 642.81039 298.598297 
L 651.506494 300.307764 
L 660.202597 301.782063 
L 668.898701 300.693718 
L 677.594805 298.220582 
L 686.290909 299.215651 
L 694.987013 297.632599 
L 703.683117 301.150621 
L 712.379221 301.113704 
L 721.075325 299.491073 
L 729.771429 300.238299 
L 738.467532 299.50184 
L 747.163636 299.131487 
" style="fill:none;stroke:#d62728;stroke-linecap:square;stroke-width:2;"/>
   </g>
   <g id="line2d_18">
    <path clip-path="url(#p31bf2740c1)" d="M 138.436364 181.244052 
L 147.132468 186.778779 
L 155.828571 189.639585 
L 164.524675 201.440403 
L 173.220779 193.429846 
L 181.916883 192.19671 
L 190.612987 197.046413 
L 199.309091 191.55659 
L 208.005195 193.75837 
L 216.701299 201.486861 
L 225.397403 192.558263 
L 234.093506 195.547537 
L 242.78961 194.034876 
L 251.485714 194.908091 
L 260.181818 197.253467 
L 268.877922 191.650552 
L 277.574026 191.9433 
L 286.27013 191.822524 
L 294.966234 188.637195 
L 303.662338 202.556735 
L 312.358442 198.162696 
L 321.054545 209.742813 
L 329.750649 202.511036 
L 338.446753 204.941357 
L 347.142857 203.364656 
L 355.838961 205.873077 
L 364.535065 204.881281 
L 373.231169 206.192419 
L 381.927273 211.866288 
L 390.623377 206.664904 
L 399.319481 214.208359 
L 408.015584 218.906524 
L 416.711688 212.28049 
L 425.407792 215.628056 
L 434.103896 204.6701 
L 442.8 210.68947 
L 451.496104 209.003201 
L 460.192208 215.479215 
L 468.888312 213.286691 
L 477.584416 214.425831 
L 486.280519 207.795895 
L 494.976623 197.495074 
L 503.672727 191.254476 
L 512.368831 193.453275 
L 521.064935 187.70091 
L 529.761039 189.39346 
L 538.457143 186.363638 
L 547.153247 181.920115 
L 555.849351 184.991912 
L 564.545455 175.683594 
L 573.241558 173.681127 
L 581.937662 174.845289 
L 590.633766 176.513938 
L 599.32987 174.765572 
L 608.025974 185.661918 
L 616.722078 190.644879 
L 625.418182 188.375935 
L 634.114286 187.368333 
L 642.81039 177.586277 
L 651.506494 171.919002 
L 660.202597 181.156962 
L 668.898701 181.644377 
L 677.594805 184.240737 
L 686.290909 182.587781 
L 694.987013 185.960015 
L 703.683117 181.814316 
L 712.379221 186.09689 
L 721.075325 181.782262 
L 729.771429 177.985137 
L 738.467532 186.431904 
L 747.163636 175.526791 
" style="fill:none;stroke:#9467bd;stroke-linecap:square;stroke-width:2;"/>
   </g>
   <g id="line2d_19">
    <path clip-path="url(#p31bf2740c1)" d="M 138.436364 299.307872 
L 147.132468 301.412831 
L 155.828571 298.960065 
L 164.524675 297.442637 
L 173.220779 299.484387 
L 181.916883 298.157896 
L 190.612987 301.068298 
L 199.309091 297.709851 
L 208.005195 293.651115 
L 216.701299 297.590905 
L 225.397403 294.93247 
L 234.093506 296.293337 
L 242.78961 298.810599 
L 251.485714 297.106748 
L 260.181818 295.7489 
L 268.877922 298.34142 
L 277.574026 299.274346 
L 286.27013 298.996915 
L 294.966234 299.712093 
L 303.662338 291.858544 
L 312.358442 291.101743 
L 321.054545 293.408996 
L 329.750649 289.218259 
L 338.446753 289.594198 
L 347.142857 290.440387 
L 355.838961 289.041414 
L 364.535065 285.962038 
L 373.231169 281.228468 
L 381.927273 269.868051 
L 390.623377 268.443612 
L 399.319481 275.661737 
L 408.015584 263.958817 
L 416.711688 264.576341 
L 425.407792 269.773313 
L 434.103896 271.856536 
L 442.8 264.868631 
L 451.496104 258.330156 
L 460.192208 261.289646 
L 468.888312 257.353564 
L 477.584416 252.445993 
L 486.280519 254.612529 
L 494.976623 248.007413 
L 503.672727 247.601692 
L 512.368831 255.858109 
L 521.064935 255.229925 
L 529.761039 247.81801 
L 538.457143 240.575437 
L 547.153247 238.067677 
L 555.849351 241.046817 
L 564.545455 229.981527 
L 573.241558 233.900549 
L 581.937662 236.538969 
L 590.633766 232.233591 
L 599.32987 237.69355 
L 608.025974 240.166094 
L 616.722078 246.66009 
L 625.418182 246.167472 
L 634.114286 238.192261 
L 642.81039 235.338482 
L 651.506494 238.139399 
L 660.202597 241.032109 
L 668.898701 241.821186 
L 677.594805 242.952609 
L 686.290909 247.296713 
L 694.987013 244.799706 
L 703.683117 246.745061 
L 712.379221 248.492106 
L 721.075325 241.004693 
L 729.771429 242.516711 
L 738.467532 238.668002 
L 747.163636 242.781387 
" style="fill:none;stroke:#8c564b;stroke-linecap:square;stroke-width:2;"/>
   </g>
   <g id="line2d_20">
    <path clip-path="url(#p31bf2740c1)" d="M 138.436364 300.236716 
L 147.132468 300.229998 
L 155.828571 300.099178 
L 164.524675 299.527134 
L 173.220779 299.707502 
L 181.916883 299.382626 
L 190.612987 299.954925 
L 199.309091 300.17003 
L 208.005195 300.2768 
L 216.701299 299.025013 
L 225.397403 299.032681 
L 234.093506 299.428075 
L 242.78961 298.683326 
L 251.485714 298.379777 
L 260.181818 299.201732 
L 268.877922 298.605277 
L 277.574026 297.678311 
L 286.27013 297.499588 
L 294.966234 297.651567 
L 303.662338 297.594534 
L 312.358442 297.568785 
L 321.054545 297.548966 
L 329.750649 298.103294 
L 338.446753 297.954788 
L 347.142857 297.666133 
L 355.838961 298.186117 
L 364.535065 296.956863 
L 373.231169 297.17718 
L 381.927273 297.32625 
L 390.623377 297.039797 
L 399.319481 297.083528 
L 408.015584 296.719659 
L 416.711688 296.327931 
L 425.407792 295.161007 
L 434.103896 295.309389 
L 442.8 294.992626 
L 451.496104 295.260897 
L 460.192208 295.076048 
L 468.888312 294.520807 
L 477.584416 291.522576 
L 486.280519 291.725408 
L 494.976623 293.762206 
L 503.672727 290.995944 
L 512.368831 291.178788 
L 521.064935 290.855274 
L 529.761039 290.80641 
L 538.457143 289.877192 
L 547.153247 290.33332 
L 555.849351 290.35977 
L 564.545455 290.768225 
L 573.241558 290.204638 
L 581.937662 289.3199 
L 590.633766 288.781894 
L 599.32987 289.952382 
L 608.025974 290.937477 
L 616.722078 290.673615 
L 625.418182 289.883264 
L 634.114286 291.094389 
L 642.81039 290.652928 
L 651.506494 289.686535 
L 660.202597 290.829466 
L 668.898701 290.905961 
L 677.594805 290.625839 
L 686.290909 290.567289 
L 694.987013 291.083009 
L 703.683117 289.723234 
L 712.379221 288.883622 
L 721.075325 290.234892 
L 729.771429 289.073855 
L 738.467532 288.308391 
L 747.163636 287.511462 
" style="fill:none;stroke:#e377c2;stroke-linecap:square;stroke-width:2;"/>
   </g>
   <g id="line2d_21">
    <path clip-path="url(#p31bf2740c1)" d="M 138.436364 295.318594 
L 147.132468 300.043671 
L 155.828571 297.449651 
L 164.524675 295.892293 
L 173.220779 294.282713 
L 181.916883 291.168569 
L 190.612987 297.819121 
L 199.309091 292.263523 
L 208.005195 289.504093 
L 216.701299 289.808844 
L 225.397403 296.708032 
L 234.093506 292.577836 
L 242.78961 294.635087 
L 251.485714 292.751563 
L 260.181818 295.736338 
L 268.877922 294.410203 
L 277.574026 294.944496 
L 286.27013 296.251598 
L 294.966234 296.293061 
L 303.662338 296.1066 
L 312.358442 291.499289 
L 321.054545 288.455746 
L 329.750649 287.807622 
L 338.446753 290.466229 
L 347.142857 291.967583 
L 355.838961 290.745612 
L 364.535065 291.042338 
L 373.231169 293.696026 
L 381.927273 293.517376 
L 390.623377 292.265818 
L 399.319481 291.892231 
L 408.015584 293.226955 
L 416.711688 293.958635 
L 425.407792 292.320648 
L 434.103896 295.557074 
L 442.8 296.210546 
L 451.496104 298.655983 
L 460.192208 297.684315 
L 468.888312 294.667144 
L 477.584416 271.791215 
L 486.280519 257.58199 
L 494.976623 264.429481 
L 503.672727 236.812211 
L 512.368831 237.543384 
L 521.064935 240.897286 
L 529.761039 214.272197 
L 538.457143 200.167713 
L 547.153247 192.290918 
L 555.849351 187.579807 
L 564.545455 204.492871 
L 573.241558 192.929242 
L 581.937662 186.126789 
L 590.633766 193.664418 
L 599.32987 179.661104 
L 608.025974 170.011085 
L 616.722078 176.569523 
L 625.418182 182.128179 
L 634.114286 187.838387 
L 642.81039 187.617937 
L 651.506494 183.368019 
L 660.202597 170.432318 
L 668.898701 176.587465 
L 677.594805 178.712134 
L 686.290909 181.840439 
L 694.987013 182.876652 
L 703.683117 166.894372 
L 712.379221 171.939497 
L 721.075325 180.843543 
L 729.771429 181.766317 
L 738.467532 182.535204 
L 747.163636 187.559365 
" style="fill:none;stroke:#7f7f7f;stroke-linecap:square;stroke-width:2;"/>
   </g>
   <g id="line2d_22">
    <path clip-path="url(#p31bf2740c1)" d="M 138.436364 190.544604 
L 147.132468 191.15402 
L 155.828571 174.930815 
L 164.524675 199.393129 
L 173.220779 214.12417 
L 181.916883 212.271629 
L 190.612987 194.099004 
L 199.309091 217.55891 
L 208.005195 204.536534 
L 216.701299 203.622121 
L 225.397403 202.686004 
L 234.093506 217.497616 
L 242.78961 204.172607 
L 251.485714 214.596314 
L 260.181818 204.658032 
L 268.877922 219.539485 
L 277.574026 209.172358 
L 286.27013 212.39347 
L 294.966234 201.140758 
L 303.662338 213.669922 
L 312.358442 220.461885 
L 321.054545 216.710536 
L 329.750649 214.754671 
L 338.446753 215.467763 
L 347.142857 222.197091 
L 355.838961 225.380927 
L 364.535065 231.64308 
L 373.231169 235.407642 
L 381.927273 222.971839 
L 390.623377 227.532531 
L 399.319481 217.695111 
L 408.015584 231.984596 
L 416.711688 224.50256 
L 425.407792 236.013225 
L 434.103896 224.95959 
L 442.8 227.698811 
L 451.496104 229.562154 
L 460.192208 228.597742 
L 468.888312 240.712409 
L 477.584416 236.637955 
L 486.280519 249.931345 
L 494.976623 245.183256 
L 503.672727 269.390127 
L 512.368831 265.300044 
L 521.064935 258.426756 
L 529.761039 275.869516 
L 538.457143 284.741535 
L 547.153247 291.979145 
L 555.849351 290.946459 
L 564.545455 284.933718 
L 573.241558 288.710741 
L 581.937662 293.259383 
L 590.633766 293.473583 
L 599.32987 291.704321 
L 608.025974 289.556007 
L 616.722078 285.441969 
L 625.418182 287.932298 
L 634.114286 288.251713 
L 642.81039 291.277332 
L 651.506494 294.41024 
L 660.202597 297.925612 
L 668.898701 294.982962 
L 677.594805 291.278093 
L 686.290909 285.324282 
L 694.987013 289.16008 
L 703.683117 297.954753 
L 712.379221 293.551073 
L 721.075325 291.478462 
L 729.771429 295.570864 
L 738.467532 293.412018 
L 747.163636 292.391483 
" style="fill:none;stroke:#bcbd22;stroke-linecap:square;stroke-width:2;"/>
   </g>
   <g id="line2d_23">
    <path clip-path="url(#p31bf2740c1)" d="M 138.436364 298.100468 
L 147.132468 300.602653 
L 155.828571 298.533757 
L 164.524675 300.081759 
L 173.220779 297.070837 
L 181.916883 298.62801 
L 190.612987 299.504339 
L 199.309091 294.390537 
L 208.005195 295.363125 
L 216.701299 296.870959 
L 225.397403 300.450923 
L 234.093506 298.223683 
L 242.78961 297.345743 
L 251.485714 298.494771 
L 260.181818 296.397652 
L 268.877922 296.847076 
L 277.574026 296.731688 
L 286.27013 297.241113 
L 294.966234 296.558691 
L 303.662338 294.363057 
L 312.358442 289.033612 
L 321.054545 293.203 
L 329.750649 288.874864 
L 338.446753 287.940686 
L 347.142857 286.516963 
L 355.838961 280.509991 
L 364.535065 283.711993 
L 373.231169 277.833523 
L 381.927273 271.180925 
L 390.623377 270.890211 
L 399.319481 266.416851 
L 408.015584 267.346726 
L 416.711688 266.383671 
L 425.407792 265.369365 
L 434.103896 265.087001 
L 442.8 262.760948 
L 451.496104 266.737226 
L 460.192208 264.02142 
L 468.888312 265.07128 
L 477.584416 255.951302 
L 486.280519 252.311466 
L 494.976623 261.019828 
L 503.672727 247.82513 
L 512.368831 247.177273 
L 521.064935 249.361116 
L 529.761039 235.801761 
L 538.457143 236.205477 
L 547.153247 239.399688 
L 555.849351 241.39796 
L 564.545455 252.859629 
L 573.241558 249.636084 
L 581.937662 247.990812 
L 590.633766 245.202951 
L 599.32987 246.635498 
L 608.025974 245.999342 
L 616.722078 243.733974 
L 625.418182 246.837362 
L 634.114286 250.831343 
L 642.81039 251.798159 
L 651.506494 246.554623 
L 660.202597 245.613371 
L 668.898701 243.876444 
L 677.594805 245.92488 
L 686.290909 249.251086 
L 694.987013 246.436161 
L 703.683117 243.503199 
L 712.379221 241.072717 
L 721.075325 246.575955 
L 729.771429 244.128563 
L 738.467532 243.211853 
L 747.163636 243.417759 
" style="fill:none;stroke:#17becf;stroke-linecap:square;stroke-width:2;"/>
   </g>
   <g id="line2d_24">
    <path clip-path="url(#p31bf2740c1)" d="M 138.436364 105.674151 
L 147.132468 82.303014 
L 155.828571 101.235697 
L 164.524675 56.735394 
L 173.220779 55.554545 
L 181.916883 73.931934 
L 190.612987 72.549753 
L 199.309091 74.290105 
L 208.005195 76.931045 
L 216.701299 64.014867 
L 225.397403 93.152984 
L 234.093506 62.024576 
L 242.78961 69.791382 
L 251.485714 71.636427 
L 260.181818 83.353989 
L 268.877922 69.219593 
L 277.574026 76.05599 
L 286.27013 69.42553 
L 294.966234 74.814928 
L 303.662338 60.053973 
L 312.358442 81.097535 
L 321.054545 64.157662 
L 329.750649 85.020556 
L 338.446753 73.89096 
L 347.142857 64.005146 
L 355.838961 77.936505 
L 364.535065 66.599952 
L 373.231169 67.645648 
L 381.927273 89.127961 
L 390.623377 94.638643 
L 399.319481 100.865208 
L 408.015584 82.683131 
L 416.711688 97.214744 
L 425.407792 83.164266 
L 434.103896 100.691642 
L 442.8 99.787309 
L 451.496104 95.631928 
L 460.192208 91.522343 
L 468.888312 90.443851 
L 477.584416 151.18457 
L 486.280519 166.557633 
L 494.976623 166.109199 
L 503.672727 213.964594 
L 512.368831 199.819938 
L 521.064935 213.223227 
L 529.761039 247.719823 
L 538.457143 266.055878 
L 547.153247 274.368885 
L 555.849351 274.332097 
L 564.545455 260.620036 
L 573.241558 276.211535 
L 581.937662 272.817026 
L 590.633766 277.797382 
L 599.32987 281.916879 
L 608.025974 283.452384 
L 616.722078 277.031018 
L 625.418182 277.990092 
L 634.114286 271.96652 
L 642.81039 274.752853 
L 651.506494 285.520232 
L 660.202597 291.134884 
L 668.898701 288.811506 
L 677.594805 279.418614 
L 686.290909 275.430719 
L 694.987013 272.871993 
L 703.683117 289.414919 
L 712.379221 283.135955 
L 721.075325 280.032359 
L 729.771429 287.679287 
L 738.467532 285.393704 
L 747.163636 284.776857 
" style="fill:none;stroke:#1f77b4;stroke-linecap:square;stroke-width:2;"/>
   </g>
   <g id="patch_3">
    <path d="M 108 315 
L 108 43.2 
" style="fill:none;stroke:#000000;stroke-linecap:square;stroke-linejoin:miter;stroke-width:0.8;"/>
   </g>
   <g id="patch_4">
    <path d="M 777.6 315 
L 777.6 43.2 
" style="fill:none;stroke:#000000;stroke-linecap:square;stroke-linejoin:miter;stroke-width:0.8;"/>
   </g>
   <g id="patch_5">
    <path d="M 108 315 
L 777.6 315 
" style="fill:none;stroke:#000000;stroke-linecap:square;stroke-linejoin:miter;stroke-width:0.8;"/>
   </g>
   <g id="patch_6">
    <path d="M 108 43.2 
L 777.6 43.2 
" style="fill:none;stroke:#000000;stroke-linecap:square;stroke-linejoin:miter;stroke-width:0.8;"/>
   </g>
   <g id="legend_1">
    <g id="patch_7">
     <path d="M 784.6 212.659375 
L 867.973438 212.659375 
Q 869.973438 212.659375 869.973438 210.659375 
L 869.973438 50.2 
Q 869.973438 48.2 867.973438 48.2 
L 784.6 48.2 
Q 782.6 48.2 782.6 50.2 
L 782.6 210.659375 
Q 782.6 212.659375 784.6 212.659375 
z
" style="fill:#ffffff;opacity:0.8;stroke:#cccccc;stroke-linejoin:miter;"/>
    </g>
    <g id="line2d_25">
     <path d="M 786.6 56.298437 
L 806.6 56.298437 
" style="fill:none;stroke:#1f77b4;stroke-linecap:square;stroke-width:2;"/>
    </g>
    <g id="line2d_26"/>
    <g id="text_14">
     <!-- deg -->
     <defs>
      <path d="M 45.40625 46.390625 
L 45.40625 75.984375 
L 54.390625 75.984375 
L 54.390625 0 
L 45.40625 0 
L 45.40625 8.203125 
Q 42.578125 3.328125 38.25 0.953125 
Q 33.9375 -1.421875 27.875 -1.421875 
Q 17.96875 -1.421875 11.734375 6.484375 
Q 5.515625 14.40625 5.515625 27.296875 
Q 5.515625 40.1875 11.734375 48.09375 
Q 17.96875 56 27.875 56 
Q 33.9375 56 38.25 53.625 
Q 42.578125 51.265625 45.40625 46.390625 
z
M 14.796875 27.296875 
Q 14.796875 17.390625 18.875 11.75 
Q 22.953125 6.109375 30.078125 6.109375 
Q 37.203125 6.109375 41.296875 11.75 
Q 45.40625 17.390625 45.40625 27.296875 
Q 45.40625 37.203125 41.296875 42.84375 
Q 37.203125 48.484375 30.078125 48.484375 
Q 22.953125 48.484375 18.875 42.84375 
Q 14.796875 37.203125 14.796875 27.296875 
z
" id="DejaVuSans-100"/>
      <path d="M 56.203125 29.59375 
L 56.203125 25.203125 
L 14.890625 25.203125 
Q 15.484375 15.921875 20.484375 11.0625 
Q 25.484375 6.203125 34.421875 6.203125 
Q 39.59375 6.203125 44.453125 7.46875 
Q 49.3125 8.734375 54.109375 11.28125 
L 54.109375 2.78125 
Q 49.265625 0.734375 44.1875 -0.34375 
Q 39.109375 -1.421875 33.890625 -1.421875 
Q 20.796875 -1.421875 13.15625 6.1875 
Q 5.515625 13.8125 5.515625 26.8125 
Q 5.515625 40.234375 12.765625 48.109375 
Q 20.015625 56 32.328125 56 
Q 43.359375 56 49.78125 48.890625 
Q 56.203125 41.796875 56.203125 29.59375 
z
M 47.21875 32.234375 
Q 47.125 39.59375 43.09375 43.984375 
Q 39.0625 48.390625 32.421875 48.390625 
Q 24.90625 48.390625 20.390625 44.140625 
Q 15.875 39.890625 15.1875 32.171875 
z
" id="DejaVuSans-101"/>
      <path d="M 45.40625 27.984375 
Q 45.40625 37.75 41.375 43.109375 
Q 37.359375 48.484375 30.078125 48.484375 
Q 22.859375 48.484375 18.828125 43.109375 
Q 14.796875 37.75 14.796875 27.984375 
Q 14.796875 18.265625 18.828125 12.890625 
Q 22.859375 7.515625 30.078125 7.515625 
Q 37.359375 7.515625 41.375 12.890625 
Q 45.40625 18.265625 45.40625 27.984375 
z
M 54.390625 6.78125 
Q 54.390625 -7.171875 48.1875 -13.984375 
Q 42 -20.796875 29.203125 -20.796875 
Q 24.46875 -20.796875 20.265625 -20.09375 
Q 16.0625 -19.390625 12.109375 -17.921875 
L 12.109375 -9.1875 
Q 16.0625 -11.328125 19.921875 -12.34375 
Q 23.78125 -13.375 27.78125 -13.375 
Q 36.625 -13.375 41.015625 -8.765625 
Q 45.40625 -4.15625 45.40625 5.171875 
L 45.40625 9.625 
Q 42.625 4.78125 38.28125 2.390625 
Q 33.9375 0 27.875 0 
Q 17.828125 0 11.671875 7.65625 
Q 5.515625 15.328125 5.515625 27.984375 
Q 5.515625 40.671875 11.671875 48.328125 
Q 17.828125 56 27.875 56 
Q 33.9375 56 38.28125 53.609375 
Q 42.625 51.21875 45.40625 46.390625 
L 45.40625 54.6875 
L 54.390625 54.6875 
z
" id="DejaVuSans-103"/>
     </defs>
     <g transform="translate(814.6 59.798437)scale(0.1 -0.1)">
      <use xlink:href="#DejaVuSans-100"/>
      <use x="63.476562" xlink:href="#DejaVuSans-101"/>
      <use x="125" xlink:href="#DejaVuSans-103"/>
     </g>
    </g>
    <g id="line2d_27">
     <path d="M 786.6 70.976562 
L 806.6 70.976562 
" style="fill:none;stroke:#ff7f0e;stroke-linecap:square;stroke-width:2;"/>
    </g>
    <g id="line2d_28"/>
    <g id="text_15">
     <!-- dem -->
     <defs>
      <path d="M 52 44.1875 
Q 55.375 50.25 60.0625 53.125 
Q 64.75 56 71.09375 56 
Q 79.640625 56 84.28125 50.015625 
Q 88.921875 44.046875 88.921875 33.015625 
L 88.921875 0 
L 79.890625 0 
L 79.890625 32.71875 
Q 79.890625 40.578125 77.09375 44.375 
Q 74.3125 48.1875 68.609375 48.1875 
Q 61.625 48.1875 57.5625 43.546875 
Q 53.515625 38.921875 53.515625 30.90625 
L 53.515625 0 
L 44.484375 0 
L 44.484375 32.71875 
Q 44.484375 40.625 41.703125 44.40625 
Q 38.921875 48.1875 33.109375 48.1875 
Q 26.21875 48.1875 22.15625 43.53125 
Q 18.109375 38.875 18.109375 30.90625 
L 18.109375 0 
L 9.078125 0 
L 9.078125 54.6875 
L 18.109375 54.6875 
L 18.109375 46.1875 
Q 21.1875 51.21875 25.484375 53.609375 
Q 29.78125 56 35.6875 56 
Q 41.65625 56 45.828125 52.96875 
Q 50 49.953125 52 44.1875 
z
" id="DejaVuSans-109"/>
     </defs>
     <g transform="translate(814.6 74.476562)scale(0.1 -0.1)">
      <use xlink:href="#DejaVuSans-100"/>
      <use x="63.476562" xlink:href="#DejaVuSans-101"/>
      <use x="125" xlink:href="#DejaVuSans-109"/>
     </g>
    </g>
    <g id="line2d_29">
     <path d="M 786.6 85.654688 
L 806.6 85.654688 
" style="fill:none;stroke:#2ca02c;stroke-linecap:square;stroke-width:2;"/>
    </g>
    <g id="line2d_30"/>
    <g id="text_16">
     <!-- dere -->
     <defs>
      <path d="M 41.109375 46.296875 
Q 39.59375 47.171875 37.8125 47.578125 
Q 36.03125 48 33.890625 48 
Q 26.265625 48 22.1875 43.046875 
Q 18.109375 38.09375 18.109375 28.8125 
L 18.109375 0 
L 9.078125 0 
L 9.078125 54.6875 
L 18.109375 54.6875 
L 18.109375 46.1875 
Q 20.953125 51.171875 25.484375 53.578125 
Q 30.03125 56 36.53125 56 
Q 37.453125 56 38.578125 55.875 
Q 39.703125 55.765625 41.0625 55.515625 
z
" id="DejaVuSans-114"/>
     </defs>
     <g transform="translate(814.6 89.154688)scale(0.1 -0.1)">
      <use xlink:href="#DejaVuSans-100"/>
      <use x="63.476562" xlink:href="#DejaVuSans-101"/>
      <use x="125" xlink:href="#DejaVuSans-114"/>
      <use x="163.863281" xlink:href="#DejaVuSans-101"/>
     </g>
    </g>
    <g id="line2d_31">
     <path d="M 786.6 100.332812 
L 806.6 100.332812 
" style="fill:none;stroke:#d62728;stroke-linecap:square;stroke-width:2;"/>
    </g>
    <g id="line2d_32"/>
    <g id="text_17">
     <!-- dig -->
     <defs>
      <path d="M 9.421875 54.6875 
L 18.40625 54.6875 
L 18.40625 0 
L 9.421875 0 
z
M 9.421875 75.984375 
L 18.40625 75.984375 
L 18.40625 64.59375 
L 9.421875 64.59375 
z
" id="DejaVuSans-105"/>
     </defs>
     <g transform="translate(814.6 103.832812)scale(0.1 -0.1)">
      <use xlink:href="#DejaVuSans-100"/>
      <use x="63.476562" xlink:href="#DejaVuSans-105"/>
      <use x="91.259766" xlink:href="#DejaVuSans-103"/>
     </g>
    </g>
    <g id="line2d_33">
     <path d="M 786.6 115.010938 
L 806.6 115.010938 
" style="fill:none;stroke:#9467bd;stroke-linecap:square;stroke-width:2;"/>
    </g>
    <g id="line2d_34"/>
    <g id="text_18">
     <!-- ham -->
     <defs>
      <path d="M 54.890625 33.015625 
L 54.890625 0 
L 45.90625 0 
L 45.90625 32.71875 
Q 45.90625 40.484375 42.875 44.328125 
Q 39.84375 48.1875 33.796875 48.1875 
Q 26.515625 48.1875 22.3125 43.546875 
Q 18.109375 38.921875 18.109375 30.90625 
L 18.109375 0 
L 9.078125 0 
L 9.078125 75.984375 
L 18.109375 75.984375 
L 18.109375 46.1875 
Q 21.34375 51.125 25.703125 53.5625 
Q 30.078125 56 35.796875 56 
Q 45.21875 56 50.046875 50.171875 
Q 54.890625 44.34375 54.890625 33.015625 
z
" id="DejaVuSans-104"/>
      <path d="M 34.28125 27.484375 
Q 23.390625 27.484375 19.1875 25 
Q 14.984375 22.515625 14.984375 16.5 
Q 14.984375 11.71875 18.140625 8.90625 
Q 21.296875 6.109375 26.703125 6.109375 
Q 34.1875 6.109375 38.703125 11.40625 
Q 43.21875 16.703125 43.21875 25.484375 
L 43.21875 27.484375 
z
M 52.203125 31.203125 
L 52.203125 0 
L 43.21875 0 
L 43.21875 8.296875 
Q 40.140625 3.328125 35.546875 0.953125 
Q 30.953125 -1.421875 24.3125 -1.421875 
Q 15.921875 -1.421875 10.953125 3.296875 
Q 6 8.015625 6 15.921875 
Q 6 25.140625 12.171875 29.828125 
Q 18.359375 34.515625 30.609375 34.515625 
L 43.21875 34.515625 
L 43.21875 35.40625 
Q 43.21875 41.609375 39.140625 45 
Q 35.0625 48.390625 27.6875 48.390625 
Q 23 48.390625 18.546875 47.265625 
Q 14.109375 46.140625 10.015625 43.890625 
L 10.015625 52.203125 
Q 14.9375 54.109375 19.578125 55.046875 
Q 24.21875 56 28.609375 56 
Q 40.484375 56 46.34375 49.84375 
Q 52.203125 43.703125 52.203125 31.203125 
z
" id="DejaVuSans-97"/>
     </defs>
     <g transform="translate(814.6 118.510938)scale(0.1 -0.1)">
      <use xlink:href="#DejaVuSans-104"/>
      <use x="63.378906" xlink:href="#DejaVuSans-97"/>
      <use x="124.658203" xlink:href="#DejaVuSans-109"/>
     </g>
    </g>
    <g id="line2d_35">
     <path d="M 786.6 129.689062 
L 806.6 129.689062 
" style="fill:none;stroke:#8c564b;stroke-linecap:square;stroke-width:2;"/>
    </g>
    <g id="line2d_36"/>
    <g id="text_19">
     <!-- henne -->
     <defs>
      <path d="M 54.890625 33.015625 
L 54.890625 0 
L 45.90625 0 
L 45.90625 32.71875 
Q 45.90625 40.484375 42.875 44.328125 
Q 39.84375 48.1875 33.796875 48.1875 
Q 26.515625 48.1875 22.3125 43.546875 
Q 18.109375 38.921875 18.109375 30.90625 
L 18.109375 0 
L 9.078125 0 
L 9.078125 54.6875 
L 18.109375 54.6875 
L 18.109375 46.1875 
Q 21.34375 51.125 25.703125 53.5625 
Q 30.078125 56 35.796875 56 
Q 45.21875 56 50.046875 50.171875 
Q 54.890625 44.34375 54.890625 33.015625 
z
" id="DejaVuSans-110"/>
     </defs>
     <g transform="translate(814.6 133.189062)scale(0.1 -0.1)">
      <use xlink:href="#DejaVuSans-104"/>
      <use x="63.378906" xlink:href="#DejaVuSans-101"/>
      <use x="124.902344" xlink:href="#DejaVuSans-110"/>
      <use x="188.28125" xlink:href="#DejaVuSans-110"/>
      <use x="251.660156" xlink:href="#DejaVuSans-101"/>
     </g>
    </g>
    <g id="line2d_37">
     <path d="M 786.6 144.367188 
L 806.6 144.367188 
" style="fill:none;stroke:#e377c2;stroke-linecap:square;stroke-width:2;"/>
    </g>
    <g id="line2d_38"/>
    <g id="text_20">
     <!-- hverandre -->
     <defs>
      <path d="M 2.984375 54.6875 
L 12.5 54.6875 
L 29.59375 8.796875 
L 46.6875 54.6875 
L 56.203125 54.6875 
L 35.6875 0 
L 23.484375 0 
z
" id="DejaVuSans-118"/>
     </defs>
     <g transform="translate(814.6 147.867188)scale(0.1 -0.1)">
      <use xlink:href="#DejaVuSans-104"/>
      <use x="63.378906" xlink:href="#DejaVuSans-118"/>
      <use x="122.558594" xlink:href="#DejaVuSans-101"/>
      <use x="184.082031" xlink:href="#DejaVuSans-114"/>
      <use x="225.195312" xlink:href="#DejaVuSans-97"/>
      <use x="286.474609" xlink:href="#DejaVuSans-110"/>
      <use x="349.853516" xlink:href="#DejaVuSans-100"/>
      <use x="413.330078" xlink:href="#DejaVuSans-114"/>
      <use x="452.193359" xlink:href="#DejaVuSans-101"/>
     </g>
    </g>
    <g id="line2d_39">
     <path d="M 786.6 159.045312 
L 806.6 159.045312 
" style="fill:none;stroke:#7f7f7f;stroke-linecap:square;stroke-width:2;"/>
    </g>
    <g id="line2d_40"/>
    <g id="text_21">
     <!-- meg -->
     <g transform="translate(814.6 162.545312)scale(0.1 -0.1)">
      <use xlink:href="#DejaVuSans-109"/>
      <use x="97.412109" xlink:href="#DejaVuSans-101"/>
      <use x="158.935547" xlink:href="#DejaVuSans-103"/>
     </g>
    </g>
    <g id="line2d_41">
     <path d="M 786.6 173.723437 
L 806.6 173.723437 
" style="fill:none;stroke:#bcbd22;stroke-linecap:square;stroke-width:2;"/>
    </g>
    <g id="line2d_42"/>
    <g id="text_22">
     <!-- mig -->
     <g transform="translate(814.6 177.223437)scale(0.1 -0.1)">
      <use xlink:href="#DejaVuSans-109"/>
      <use x="97.412109" xlink:href="#DejaVuSans-105"/>
      <use x="125.195312" xlink:href="#DejaVuSans-103"/>
     </g>
    </g>
    <g id="line2d_43">
     <path d="M 786.6 188.401562 
L 806.6 188.401562 
" style="fill:none;stroke:#17becf;stroke-linecap:square;stroke-width:2;"/>
    </g>
    <g id="line2d_44"/>
    <g id="text_23">
     <!-- oss -->
     <defs>
      <path d="M 30.609375 48.390625 
Q 23.390625 48.390625 19.1875 42.75 
Q 14.984375 37.109375 14.984375 27.296875 
Q 14.984375 17.484375 19.15625 11.84375 
Q 23.34375 6.203125 30.609375 6.203125 
Q 37.796875 6.203125 41.984375 11.859375 
Q 46.1875 17.53125 46.1875 27.296875 
Q 46.1875 37.015625 41.984375 42.703125 
Q 37.796875 48.390625 30.609375 48.390625 
z
M 30.609375 56 
Q 42.328125 56 49.015625 48.375 
Q 55.71875 40.765625 55.71875 27.296875 
Q 55.71875 13.875 49.015625 6.21875 
Q 42.328125 -1.421875 30.609375 -1.421875 
Q 18.84375 -1.421875 12.171875 6.21875 
Q 5.515625 13.875 5.515625 27.296875 
Q 5.515625 40.765625 12.171875 48.375 
Q 18.84375 56 30.609375 56 
z
" id="DejaVuSans-111"/>
      <path d="M 44.28125 53.078125 
L 44.28125 44.578125 
Q 40.484375 46.53125 36.375 47.5 
Q 32.28125 48.484375 27.875 48.484375 
Q 21.1875 48.484375 17.84375 46.4375 
Q 14.5 44.390625 14.5 40.28125 
Q 14.5 37.15625 16.890625 35.375 
Q 19.28125 33.59375 26.515625 31.984375 
L 29.59375 31.296875 
Q 39.15625 29.25 43.1875 25.515625 
Q 47.21875 21.78125 47.21875 15.09375 
Q 47.21875 7.46875 41.1875 3.015625 
Q 35.15625 -1.421875 24.609375 -1.421875 
Q 20.21875 -1.421875 15.453125 -0.5625 
Q 10.6875 0.296875 5.421875 2 
L 5.421875 11.28125 
Q 10.40625 8.6875 15.234375 7.390625 
Q 20.0625 6.109375 24.8125 6.109375 
Q 31.15625 6.109375 34.5625 8.28125 
Q 37.984375 10.453125 37.984375 14.40625 
Q 37.984375 18.0625 35.515625 20.015625 
Q 33.0625 21.96875 24.703125 23.78125 
L 21.578125 24.515625 
Q 13.234375 26.265625 9.515625 29.90625 
Q 5.8125 33.546875 5.8125 39.890625 
Q 5.8125 47.609375 11.28125 51.796875 
Q 16.75 56 26.8125 56 
Q 31.78125 56 36.171875 55.265625 
Q 40.578125 54.546875 44.28125 53.078125 
z
" id="DejaVuSans-115"/>
     </defs>
     <g transform="translate(814.6 191.901562)scale(0.1 -0.1)">
      <use xlink:href="#DejaVuSans-111"/>
      <use x="61.181641" xlink:href="#DejaVuSans-115"/>
      <use x="113.28125" xlink:href="#DejaVuSans-115"/>
     </g>
    </g>
    <g id="line2d_45">
     <path d="M 786.6 203.079687 
L 806.6 203.079687 
" style="fill:none;stroke:#1f77b4;stroke-linecap:square;stroke-width:2;"/>
    </g>
    <g id="line2d_46"/>
    <g id="text_24">
     <!-- sig -->
     <g transform="translate(814.6 206.579687)scale(0.1 -0.1)">
      <use xlink:href="#DejaVuSans-115"/>
      <use x="52.099609" xlink:href="#DejaVuSans-105"/>
      <use x="79.882812" xlink:href="#DejaVuSans-103"/>
     </g>
    </g>
   </g>
  </g>
 </g>
 <defs>
  <clipPath id="p31bf2740c1">
   <rect height="271.8" width="669.6" x="108" y="43.2"/>
  </clipPath>
 </defs>
</svg>
